G04 #@! TF.GenerationSoftware,KiCad,Pcbnew,(5.0.0)*
G04 #@! TF.CreationDate,2018-11-30T17:16:34+01:00*
G04 #@! TF.ProjectId,GazSensor-Rodier&Xu,47617A53656E736F722D526F64696572,1.0*
G04 #@! TF.SameCoordinates,Original*
G04 #@! TF.FileFunction,Copper,L1,Top,Signal*
G04 #@! TF.FilePolarity,Positive*
%FSLAX46Y46*%
G04 Gerber Fmt 4.6, Leading zero omitted, Abs format (unit mm)*
G04 Created by KiCad (PCBNEW (5.0.0)) date 11/30/18 17:16:34*
%MOMM*%
%LPD*%
G01*
G04 APERTURE LIST*
G04 #@! TA.AperFunction,NonConductor*
%ADD10C,0.187500*%
G04 #@! TD*
G04 #@! TA.AperFunction,ComponentPad*
%ADD11O,1.600000X1.600000*%
G04 #@! TD*
G04 #@! TA.AperFunction,ComponentPad*
%ADD12R,1.600000X1.600000*%
G04 #@! TD*
G04 #@! TA.AperFunction,ComponentPad*
%ADD13C,1.600000*%
G04 #@! TD*
G04 #@! TA.AperFunction,ComponentPad*
%ADD14O,2.400000X1.600000*%
G04 #@! TD*
G04 #@! TA.AperFunction,ComponentPad*
%ADD15R,2.400000X1.600000*%
G04 #@! TD*
G04 #@! TA.AperFunction,ComponentPad*
%ADD16C,1.400000*%
G04 #@! TD*
G04 #@! TA.AperFunction,ComponentPad*
%ADD17O,1.400000X1.400000*%
G04 #@! TD*
G04 #@! TA.AperFunction,ComponentPad*
%ADD18O,1.200000X1.600000*%
G04 #@! TD*
G04 #@! TA.AperFunction,ComponentPad*
%ADD19O,1.200000X1.200000*%
G04 #@! TD*
G04 #@! TA.AperFunction,ComponentPad*
%ADD20R,1.524000X1.524000*%
G04 #@! TD*
G04 #@! TA.AperFunction,ComponentPad*
%ADD21C,1.524000*%
G04 #@! TD*
G04 #@! TA.AperFunction,ComponentPad*
%ADD22R,1.350000X1.350000*%
G04 #@! TD*
G04 #@! TA.AperFunction,ComponentPad*
%ADD23O,1.350000X1.350000*%
G04 #@! TD*
G04 #@! TA.AperFunction,Conductor*
%ADD24C,0.800000*%
G04 #@! TD*
G04 #@! TA.AperFunction,NonConductor*
%ADD25C,0.254000*%
G04 #@! TD*
G04 APERTURE END LIST*
D10*
X122145357Y-124380000D02*
X122181071Y-124415714D01*
X122216785Y-124522857D01*
X122216785Y-124594285D01*
X122181071Y-124701428D01*
X122109642Y-124772857D01*
X122038214Y-124808571D01*
X121895357Y-124844285D01*
X121788214Y-124844285D01*
X121645357Y-124808571D01*
X121573928Y-124772857D01*
X121502500Y-124701428D01*
X121466785Y-124594285D01*
X121466785Y-124522857D01*
X121502500Y-124415714D01*
X121538214Y-124380000D01*
X122216785Y-123737142D02*
X121823928Y-123737142D01*
X121752500Y-123772857D01*
X121716785Y-123844285D01*
X121716785Y-123987142D01*
X121752500Y-124058571D01*
X122181071Y-123737142D02*
X122216785Y-123808571D01*
X122216785Y-123987142D01*
X122181071Y-124058571D01*
X122109642Y-124094285D01*
X122038214Y-124094285D01*
X121966785Y-124058571D01*
X121931071Y-123987142D01*
X121931071Y-123808571D01*
X121895357Y-123737142D01*
X121716785Y-123380000D02*
X122466785Y-123380000D01*
X121752500Y-123380000D02*
X121716785Y-123308571D01*
X121716785Y-123165714D01*
X121752500Y-123094285D01*
X121788214Y-123058571D01*
X121859642Y-123022857D01*
X122073928Y-123022857D01*
X122145357Y-123058571D01*
X122181071Y-123094285D01*
X122216785Y-123165714D01*
X122216785Y-123308571D01*
X122181071Y-123380000D01*
X121716785Y-122808571D02*
X121716785Y-122522857D01*
X121466785Y-122701428D02*
X122109642Y-122701428D01*
X122181071Y-122665714D01*
X122216785Y-122594285D01*
X122216785Y-122522857D01*
X122181071Y-121987142D02*
X122216785Y-122058571D01*
X122216785Y-122201428D01*
X122181071Y-122272857D01*
X122109642Y-122308571D01*
X121823928Y-122308571D01*
X121752500Y-122272857D01*
X121716785Y-122201428D01*
X121716785Y-122058571D01*
X121752500Y-121987142D01*
X121823928Y-121951428D01*
X121895357Y-121951428D01*
X121966785Y-122308571D01*
X121716785Y-121308571D02*
X122216785Y-121308571D01*
X121716785Y-121630000D02*
X122109642Y-121630000D01*
X122181071Y-121594285D01*
X122216785Y-121522857D01*
X122216785Y-121415714D01*
X122181071Y-121344285D01*
X122145357Y-121308571D01*
X122216785Y-120951428D02*
X121716785Y-120951428D01*
X121859642Y-120951428D02*
X121788214Y-120915714D01*
X121752500Y-120880000D01*
X121716785Y-120808571D01*
X121716785Y-120737142D01*
X122216785Y-119594285D02*
X121466785Y-119594285D01*
X122181071Y-119594285D02*
X122216785Y-119665714D01*
X122216785Y-119808571D01*
X122181071Y-119880000D01*
X122145357Y-119915714D01*
X122073928Y-119951428D01*
X121859642Y-119951428D01*
X121788214Y-119915714D01*
X121752500Y-119880000D01*
X121716785Y-119808571D01*
X121716785Y-119665714D01*
X121752500Y-119594285D01*
X122181071Y-118951428D02*
X122216785Y-119022857D01*
X122216785Y-119165714D01*
X122181071Y-119237142D01*
X122109642Y-119272857D01*
X121823928Y-119272857D01*
X121752500Y-119237142D01*
X121716785Y-119165714D01*
X121716785Y-119022857D01*
X121752500Y-118951428D01*
X121823928Y-118915714D01*
X121895357Y-118915714D01*
X121966785Y-119272857D01*
X121716785Y-117701428D02*
X122323928Y-117701428D01*
X122395357Y-117737142D01*
X122431071Y-117772857D01*
X122466785Y-117844285D01*
X122466785Y-117951428D01*
X122431071Y-118022857D01*
X122181071Y-117701428D02*
X122216785Y-117772857D01*
X122216785Y-117915714D01*
X122181071Y-117987142D01*
X122145357Y-118022857D01*
X122073928Y-118058571D01*
X121859642Y-118058571D01*
X121788214Y-118022857D01*
X121752500Y-117987142D01*
X121716785Y-117915714D01*
X121716785Y-117772857D01*
X121752500Y-117701428D01*
X122216785Y-117022857D02*
X121823928Y-117022857D01*
X121752500Y-117058571D01*
X121716785Y-117130000D01*
X121716785Y-117272857D01*
X121752500Y-117344285D01*
X122181071Y-117022857D02*
X122216785Y-117094285D01*
X122216785Y-117272857D01*
X122181071Y-117344285D01*
X122109642Y-117380000D01*
X122038214Y-117380000D01*
X121966785Y-117344285D01*
X121931071Y-117272857D01*
X121931071Y-117094285D01*
X121895357Y-117022857D01*
X121716785Y-116737142D02*
X121716785Y-116344285D01*
X122216785Y-116737142D01*
X122216785Y-116344285D01*
X122216785Y-115165714D02*
X121466785Y-115165714D01*
X122181071Y-115165714D02*
X122216785Y-115237142D01*
X122216785Y-115380000D01*
X122181071Y-115451428D01*
X122145357Y-115487142D01*
X122073928Y-115522857D01*
X121859642Y-115522857D01*
X121788214Y-115487142D01*
X121752500Y-115451428D01*
X121716785Y-115380000D01*
X121716785Y-115237142D01*
X121752500Y-115165714D01*
X122181071Y-114522857D02*
X122216785Y-114594285D01*
X122216785Y-114737142D01*
X122181071Y-114808571D01*
X122109642Y-114844285D01*
X121823928Y-114844285D01*
X121752500Y-114808571D01*
X121716785Y-114737142D01*
X121716785Y-114594285D01*
X121752500Y-114522857D01*
X121823928Y-114487142D01*
X121895357Y-114487142D01*
X121966785Y-114844285D01*
X123529285Y-126397857D02*
X123029285Y-126397857D01*
X123172142Y-126397857D02*
X123100714Y-126362142D01*
X123065000Y-126326428D01*
X123029285Y-126255000D01*
X123029285Y-126183571D01*
X123493571Y-125647857D02*
X123529285Y-125719285D01*
X123529285Y-125862142D01*
X123493571Y-125933571D01*
X123422142Y-125969285D01*
X123136428Y-125969285D01*
X123065000Y-125933571D01*
X123029285Y-125862142D01*
X123029285Y-125719285D01*
X123065000Y-125647857D01*
X123136428Y-125612142D01*
X123207857Y-125612142D01*
X123279285Y-125969285D01*
X122743571Y-125719285D02*
X122850714Y-125826428D01*
X123029285Y-125397857D02*
X123029285Y-125112142D01*
X123529285Y-125290714D02*
X122886428Y-125290714D01*
X122815000Y-125255000D01*
X122779285Y-125183571D01*
X122779285Y-125112142D01*
X123493571Y-124576428D02*
X123529285Y-124647857D01*
X123529285Y-124790714D01*
X123493571Y-124862142D01*
X123422142Y-124897857D01*
X123136428Y-124897857D01*
X123065000Y-124862142D01*
X123029285Y-124790714D01*
X123029285Y-124647857D01*
X123065000Y-124576428D01*
X123136428Y-124540714D01*
X123207857Y-124540714D01*
X123279285Y-124897857D01*
X122743571Y-124647857D02*
X122850714Y-124755000D01*
X123529285Y-124219285D02*
X123029285Y-124219285D01*
X123172142Y-124219285D02*
X123100714Y-124183571D01*
X123065000Y-124147857D01*
X123029285Y-124076428D01*
X123029285Y-124005000D01*
X123493571Y-123469285D02*
X123529285Y-123540714D01*
X123529285Y-123683571D01*
X123493571Y-123755000D01*
X123422142Y-123790714D01*
X123136428Y-123790714D01*
X123065000Y-123755000D01*
X123029285Y-123683571D01*
X123029285Y-123540714D01*
X123065000Y-123469285D01*
X123136428Y-123433571D01*
X123207857Y-123433571D01*
X123279285Y-123790714D01*
X123029285Y-123112142D02*
X123529285Y-123112142D01*
X123100714Y-123112142D02*
X123065000Y-123076428D01*
X123029285Y-123005000D01*
X123029285Y-122897857D01*
X123065000Y-122826428D01*
X123136428Y-122790714D01*
X123529285Y-122790714D01*
X123493571Y-122112142D02*
X123529285Y-122183571D01*
X123529285Y-122326428D01*
X123493571Y-122397857D01*
X123457857Y-122433571D01*
X123386428Y-122469285D01*
X123172142Y-122469285D01*
X123100714Y-122433571D01*
X123065000Y-122397857D01*
X123029285Y-122326428D01*
X123029285Y-122183571D01*
X123065000Y-122112142D01*
X123493571Y-121505000D02*
X123529285Y-121576428D01*
X123529285Y-121719285D01*
X123493571Y-121790714D01*
X123422142Y-121826428D01*
X123136428Y-121826428D01*
X123065000Y-121790714D01*
X123029285Y-121719285D01*
X123029285Y-121576428D01*
X123065000Y-121505000D01*
X123136428Y-121469285D01*
X123207857Y-121469285D01*
X123279285Y-121826428D01*
X123529285Y-120255000D02*
X123136428Y-120255000D01*
X123065000Y-120290714D01*
X123029285Y-120362142D01*
X123029285Y-120505000D01*
X123065000Y-120576428D01*
X123493571Y-120255000D02*
X123529285Y-120326428D01*
X123529285Y-120505000D01*
X123493571Y-120576428D01*
X123422142Y-120612142D01*
X123350714Y-120612142D01*
X123279285Y-120576428D01*
X123243571Y-120505000D01*
X123243571Y-120326428D01*
X123207857Y-120255000D01*
X122743571Y-120505000D02*
X122850714Y-120397857D01*
X123493571Y-119005000D02*
X123529285Y-119076428D01*
X123529285Y-119219285D01*
X123493571Y-119290714D01*
X123457857Y-119326428D01*
X123386428Y-119362142D01*
X123172142Y-119362142D01*
X123100714Y-119326428D01*
X123065000Y-119290714D01*
X123029285Y-119219285D01*
X123029285Y-119076428D01*
X123065000Y-119005000D01*
X123529285Y-118576428D02*
X123493571Y-118647857D01*
X123457857Y-118683571D01*
X123386428Y-118719285D01*
X123172142Y-118719285D01*
X123100714Y-118683571D01*
X123065000Y-118647857D01*
X123029285Y-118576428D01*
X123029285Y-118469285D01*
X123065000Y-118397857D01*
X123100714Y-118362142D01*
X123172142Y-118326428D01*
X123386428Y-118326428D01*
X123457857Y-118362142D01*
X123493571Y-118397857D01*
X123529285Y-118469285D01*
X123529285Y-118576428D01*
X123029285Y-118005000D02*
X123529285Y-118005000D01*
X123100714Y-118005000D02*
X123065000Y-117969285D01*
X123029285Y-117897857D01*
X123029285Y-117790714D01*
X123065000Y-117719285D01*
X123136428Y-117683571D01*
X123529285Y-117683571D01*
X123029285Y-117326428D02*
X123529285Y-117326428D01*
X123100714Y-117326428D02*
X123065000Y-117290714D01*
X123029285Y-117219285D01*
X123029285Y-117112142D01*
X123065000Y-117040714D01*
X123136428Y-117005000D01*
X123529285Y-117005000D01*
X123493571Y-116362142D02*
X123529285Y-116433571D01*
X123529285Y-116576428D01*
X123493571Y-116647857D01*
X123422142Y-116683571D01*
X123136428Y-116683571D01*
X123065000Y-116647857D01*
X123029285Y-116576428D01*
X123029285Y-116433571D01*
X123065000Y-116362142D01*
X123136428Y-116326428D01*
X123207857Y-116326428D01*
X123279285Y-116683571D01*
X123493571Y-115683571D02*
X123529285Y-115755000D01*
X123529285Y-115897857D01*
X123493571Y-115969285D01*
X123457857Y-116005000D01*
X123386428Y-116040714D01*
X123172142Y-116040714D01*
X123100714Y-116005000D01*
X123065000Y-115969285D01*
X123029285Y-115897857D01*
X123029285Y-115755000D01*
X123065000Y-115683571D01*
X123029285Y-115469285D02*
X123029285Y-115183571D01*
X122779285Y-115362142D02*
X123422142Y-115362142D01*
X123493571Y-115326428D01*
X123529285Y-115255000D01*
X123529285Y-115183571D01*
X123529285Y-114933571D02*
X123029285Y-114933571D01*
X122779285Y-114933571D02*
X122815000Y-114969285D01*
X122850714Y-114933571D01*
X122815000Y-114897857D01*
X122779285Y-114933571D01*
X122850714Y-114933571D01*
X123029285Y-114255000D02*
X123779285Y-114255000D01*
X123493571Y-114255000D02*
X123529285Y-114326428D01*
X123529285Y-114469285D01*
X123493571Y-114540714D01*
X123457857Y-114576428D01*
X123386428Y-114612142D01*
X123172142Y-114612142D01*
X123100714Y-114576428D01*
X123065000Y-114540714D01*
X123029285Y-114469285D01*
X123029285Y-114326428D01*
X123065000Y-114255000D01*
X123029285Y-113576428D02*
X123529285Y-113576428D01*
X123029285Y-113897857D02*
X123422142Y-113897857D01*
X123493571Y-113862142D01*
X123529285Y-113790714D01*
X123529285Y-113683571D01*
X123493571Y-113612142D01*
X123457857Y-113576428D01*
X123493571Y-112933571D02*
X123529285Y-113005000D01*
X123529285Y-113147857D01*
X123493571Y-113219285D01*
X123422142Y-113255000D01*
X123136428Y-113255000D01*
X123065000Y-113219285D01*
X123029285Y-113147857D01*
X123029285Y-113005000D01*
X123065000Y-112933571D01*
X123136428Y-112897857D01*
X123207857Y-112897857D01*
X123279285Y-113255000D01*
X124127500Y-120612142D02*
X124091785Y-120683571D01*
X124091785Y-120790714D01*
X124127500Y-120897857D01*
X124198928Y-120969285D01*
X124270357Y-121005000D01*
X124413214Y-121040714D01*
X124520357Y-121040714D01*
X124663214Y-121005000D01*
X124734642Y-120969285D01*
X124806071Y-120897857D01*
X124841785Y-120790714D01*
X124841785Y-120719285D01*
X124806071Y-120612142D01*
X124770357Y-120576428D01*
X124520357Y-120576428D01*
X124520357Y-120719285D01*
X124841785Y-119826428D02*
X124484642Y-120076428D01*
X124841785Y-120255000D02*
X124091785Y-120255000D01*
X124091785Y-119969285D01*
X124127500Y-119897857D01*
X124163214Y-119862142D01*
X124234642Y-119826428D01*
X124341785Y-119826428D01*
X124413214Y-119862142D01*
X124448928Y-119897857D01*
X124484642Y-119969285D01*
X124484642Y-120255000D01*
X124091785Y-119362142D02*
X124091785Y-119219285D01*
X124127500Y-119147857D01*
X124198928Y-119076428D01*
X124341785Y-119040714D01*
X124591785Y-119040714D01*
X124734642Y-119076428D01*
X124806071Y-119147857D01*
X124841785Y-119219285D01*
X124841785Y-119362142D01*
X124806071Y-119433571D01*
X124734642Y-119505000D01*
X124591785Y-119540714D01*
X124341785Y-119540714D01*
X124198928Y-119505000D01*
X124127500Y-119433571D01*
X124091785Y-119362142D01*
X124091785Y-118826428D02*
X124841785Y-118576428D01*
X124091785Y-118326428D01*
X124448928Y-118076428D02*
X124448928Y-117826428D01*
X124841785Y-117719285D02*
X124841785Y-118076428D01*
X124091785Y-118076428D01*
X124091785Y-117719285D01*
X127859285Y-97091428D02*
X127859285Y-96627142D01*
X128145000Y-96877142D01*
X128145000Y-96770000D01*
X128180714Y-96698571D01*
X128216428Y-96662857D01*
X128287857Y-96627142D01*
X128466428Y-96627142D01*
X128537857Y-96662857D01*
X128573571Y-96698571D01*
X128609285Y-96770000D01*
X128609285Y-96984285D01*
X128573571Y-97055714D01*
X128537857Y-97091428D01*
X127859285Y-96412857D02*
X128609285Y-96162857D01*
X127859285Y-95912857D01*
X113911607Y-104859285D02*
X113947321Y-104895000D01*
X113983035Y-105002142D01*
X113983035Y-105073571D01*
X113947321Y-105180714D01*
X113875892Y-105252142D01*
X113804464Y-105287857D01*
X113661607Y-105323571D01*
X113554464Y-105323571D01*
X113411607Y-105287857D01*
X113340178Y-105252142D01*
X113268750Y-105180714D01*
X113233035Y-105073571D01*
X113233035Y-105002142D01*
X113268750Y-104895000D01*
X113304464Y-104859285D01*
X113983035Y-104216428D02*
X113590178Y-104216428D01*
X113518750Y-104252142D01*
X113483035Y-104323571D01*
X113483035Y-104466428D01*
X113518750Y-104537857D01*
X113947321Y-104216428D02*
X113983035Y-104287857D01*
X113983035Y-104466428D01*
X113947321Y-104537857D01*
X113875892Y-104573571D01*
X113804464Y-104573571D01*
X113733035Y-104537857D01*
X113697321Y-104466428D01*
X113697321Y-104287857D01*
X113661607Y-104216428D01*
X113483035Y-103859285D02*
X114233035Y-103859285D01*
X113518750Y-103859285D02*
X113483035Y-103787857D01*
X113483035Y-103645000D01*
X113518750Y-103573571D01*
X113554464Y-103537857D01*
X113625892Y-103502142D01*
X113840178Y-103502142D01*
X113911607Y-103537857D01*
X113947321Y-103573571D01*
X113983035Y-103645000D01*
X113983035Y-103787857D01*
X113947321Y-103859285D01*
X113483035Y-103287857D02*
X113483035Y-103002142D01*
X113233035Y-103180714D02*
X113875892Y-103180714D01*
X113947321Y-103145000D01*
X113983035Y-103073571D01*
X113983035Y-103002142D01*
X113947321Y-102466428D02*
X113983035Y-102537857D01*
X113983035Y-102680714D01*
X113947321Y-102752142D01*
X113875892Y-102787857D01*
X113590178Y-102787857D01*
X113518750Y-102752142D01*
X113483035Y-102680714D01*
X113483035Y-102537857D01*
X113518750Y-102466428D01*
X113590178Y-102430714D01*
X113661607Y-102430714D01*
X113733035Y-102787857D01*
X113483035Y-101787857D02*
X113983035Y-101787857D01*
X113483035Y-102109285D02*
X113875892Y-102109285D01*
X113947321Y-102073571D01*
X113983035Y-102002142D01*
X113983035Y-101895000D01*
X113947321Y-101823571D01*
X113911607Y-101787857D01*
X113983035Y-101430714D02*
X113483035Y-101430714D01*
X113625892Y-101430714D02*
X113554464Y-101395000D01*
X113518750Y-101359285D01*
X113483035Y-101287857D01*
X113483035Y-101216428D01*
X113983035Y-100073571D02*
X113233035Y-100073571D01*
X113947321Y-100073571D02*
X113983035Y-100145000D01*
X113983035Y-100287857D01*
X113947321Y-100359285D01*
X113911607Y-100395000D01*
X113840178Y-100430714D01*
X113625892Y-100430714D01*
X113554464Y-100395000D01*
X113518750Y-100359285D01*
X113483035Y-100287857D01*
X113483035Y-100145000D01*
X113518750Y-100073571D01*
X113947321Y-99430714D02*
X113983035Y-99502142D01*
X113983035Y-99645000D01*
X113947321Y-99716428D01*
X113875892Y-99752142D01*
X113590178Y-99752142D01*
X113518750Y-99716428D01*
X113483035Y-99645000D01*
X113483035Y-99502142D01*
X113518750Y-99430714D01*
X113590178Y-99395000D01*
X113661607Y-99395000D01*
X113733035Y-99752142D01*
X113483035Y-98180714D02*
X114090178Y-98180714D01*
X114161607Y-98216428D01*
X114197321Y-98252142D01*
X114233035Y-98323571D01*
X114233035Y-98430714D01*
X114197321Y-98502142D01*
X113947321Y-98180714D02*
X113983035Y-98252142D01*
X113983035Y-98395000D01*
X113947321Y-98466428D01*
X113911607Y-98502142D01*
X113840178Y-98537857D01*
X113625892Y-98537857D01*
X113554464Y-98502142D01*
X113518750Y-98466428D01*
X113483035Y-98395000D01*
X113483035Y-98252142D01*
X113518750Y-98180714D01*
X113983035Y-97502142D02*
X113590178Y-97502142D01*
X113518750Y-97537857D01*
X113483035Y-97609285D01*
X113483035Y-97752142D01*
X113518750Y-97823571D01*
X113947321Y-97502142D02*
X113983035Y-97573571D01*
X113983035Y-97752142D01*
X113947321Y-97823571D01*
X113875892Y-97859285D01*
X113804464Y-97859285D01*
X113733035Y-97823571D01*
X113697321Y-97752142D01*
X113697321Y-97573571D01*
X113661607Y-97502142D01*
X113483035Y-97216428D02*
X113483035Y-96823571D01*
X113983035Y-97216428D01*
X113983035Y-96823571D01*
X113983035Y-95645000D02*
X113590178Y-95645000D01*
X113518750Y-95680714D01*
X113483035Y-95752142D01*
X113483035Y-95895000D01*
X113518750Y-95966428D01*
X113947321Y-95645000D02*
X113983035Y-95716428D01*
X113983035Y-95895000D01*
X113947321Y-95966428D01*
X113875892Y-96002142D01*
X113804464Y-96002142D01*
X113733035Y-95966428D01*
X113697321Y-95895000D01*
X113697321Y-95716428D01*
X113661607Y-95645000D01*
X113197321Y-95895000D02*
X113304464Y-95787857D01*
X113947321Y-94395000D02*
X113983035Y-94466428D01*
X113983035Y-94609285D01*
X113947321Y-94680714D01*
X113911607Y-94716428D01*
X113840178Y-94752142D01*
X113625892Y-94752142D01*
X113554464Y-94716428D01*
X113518750Y-94680714D01*
X113483035Y-94609285D01*
X113483035Y-94466428D01*
X113518750Y-94395000D01*
X113983035Y-93966428D02*
X113947321Y-94037857D01*
X113911607Y-94073571D01*
X113840178Y-94109285D01*
X113625892Y-94109285D01*
X113554464Y-94073571D01*
X113518750Y-94037857D01*
X113483035Y-93966428D01*
X113483035Y-93859285D01*
X113518750Y-93787857D01*
X113554464Y-93752142D01*
X113625892Y-93716428D01*
X113840178Y-93716428D01*
X113911607Y-93752142D01*
X113947321Y-93787857D01*
X113983035Y-93859285D01*
X113983035Y-93966428D01*
X113483035Y-93395000D02*
X113983035Y-93395000D01*
X113554464Y-93395000D02*
X113518750Y-93359285D01*
X113483035Y-93287857D01*
X113483035Y-93180714D01*
X113518750Y-93109285D01*
X113590178Y-93073571D01*
X113983035Y-93073571D01*
X113483035Y-92716428D02*
X113983035Y-92716428D01*
X113554464Y-92716428D02*
X113518750Y-92680714D01*
X113483035Y-92609285D01*
X113483035Y-92502142D01*
X113518750Y-92430714D01*
X113590178Y-92395000D01*
X113983035Y-92395000D01*
X113947321Y-91752142D02*
X113983035Y-91823571D01*
X113983035Y-91966428D01*
X113947321Y-92037857D01*
X113875892Y-92073571D01*
X113590178Y-92073571D01*
X113518750Y-92037857D01*
X113483035Y-91966428D01*
X113483035Y-91823571D01*
X113518750Y-91752142D01*
X113590178Y-91716428D01*
X113661607Y-91716428D01*
X113733035Y-92073571D01*
X113947321Y-91073571D02*
X113983035Y-91145000D01*
X113983035Y-91287857D01*
X113947321Y-91359285D01*
X113911607Y-91395000D01*
X113840178Y-91430714D01*
X113625892Y-91430714D01*
X113554464Y-91395000D01*
X113518750Y-91359285D01*
X113483035Y-91287857D01*
X113483035Y-91145000D01*
X113518750Y-91073571D01*
X113483035Y-90859285D02*
X113483035Y-90573571D01*
X113233035Y-90752142D02*
X113875892Y-90752142D01*
X113947321Y-90716428D01*
X113983035Y-90645000D01*
X113983035Y-90573571D01*
X113983035Y-90323571D02*
X113483035Y-90323571D01*
X113233035Y-90323571D02*
X113268750Y-90359285D01*
X113304464Y-90323571D01*
X113268750Y-90287857D01*
X113233035Y-90323571D01*
X113304464Y-90323571D01*
X113483035Y-89645000D02*
X114233035Y-89645000D01*
X113947321Y-89645000D02*
X113983035Y-89716428D01*
X113983035Y-89859285D01*
X113947321Y-89930714D01*
X113911607Y-89966428D01*
X113840178Y-90002142D01*
X113625892Y-90002142D01*
X113554464Y-89966428D01*
X113518750Y-89930714D01*
X113483035Y-89859285D01*
X113483035Y-89716428D01*
X113518750Y-89645000D01*
X113483035Y-88966428D02*
X113983035Y-88966428D01*
X113483035Y-89287857D02*
X113875892Y-89287857D01*
X113947321Y-89252142D01*
X113983035Y-89180714D01*
X113983035Y-89073571D01*
X113947321Y-89002142D01*
X113911607Y-88966428D01*
X113947321Y-88323571D02*
X113983035Y-88395000D01*
X113983035Y-88537857D01*
X113947321Y-88609285D01*
X113875892Y-88645000D01*
X113590178Y-88645000D01*
X113518750Y-88609285D01*
X113483035Y-88537857D01*
X113483035Y-88395000D01*
X113518750Y-88323571D01*
X113590178Y-88287857D01*
X113661607Y-88287857D01*
X113733035Y-88645000D01*
X114545535Y-97484285D02*
X114545535Y-97055714D01*
X115295535Y-97270000D02*
X114545535Y-97270000D01*
X114545535Y-96662857D02*
X114545535Y-96520000D01*
X114581250Y-96448571D01*
X114652678Y-96377142D01*
X114795535Y-96341428D01*
X115045535Y-96341428D01*
X115188392Y-96377142D01*
X115259821Y-96448571D01*
X115295535Y-96520000D01*
X115295535Y-96662857D01*
X115259821Y-96734285D01*
X115188392Y-96805714D01*
X115045535Y-96841428D01*
X114795535Y-96841428D01*
X114652678Y-96805714D01*
X114581250Y-96734285D01*
X114545535Y-96662857D01*
X114545535Y-95662857D02*
X114545535Y-96020000D01*
X114902678Y-96055714D01*
X114866964Y-96020000D01*
X114831250Y-95948571D01*
X114831250Y-95770000D01*
X114866964Y-95698571D01*
X114902678Y-95662857D01*
X114974107Y-95627142D01*
X115152678Y-95627142D01*
X115224107Y-95662857D01*
X115259821Y-95698571D01*
X115295535Y-95770000D01*
X115295535Y-95948571D01*
X115259821Y-96020000D01*
X115224107Y-96055714D01*
D11*
G04 #@! TO.P,A1,32*
G04 #@! TO.N,arduinoSCL*
X130560000Y-125730000D03*
G04 #@! TO.P,A1,31*
G04 #@! TO.N,arduinoSDA*
X133100000Y-125730000D03*
D12*
G04 #@! TO.P,A1,1*
G04 #@! TO.N,N/C*
X139700000Y-77470000D03*
D11*
G04 #@! TO.P,A1,17*
X170180000Y-125730000D03*
G04 #@! TO.P,A1,2*
X142240000Y-77470000D03*
G04 #@! TO.P,A1,18*
X167640000Y-125730000D03*
G04 #@! TO.P,A1,3*
X144780000Y-77470000D03*
G04 #@! TO.P,A1,19*
X165100000Y-125730000D03*
G04 #@! TO.P,A1,4*
G04 #@! TO.N,arduino3v*
X147320000Y-77470000D03*
G04 #@! TO.P,A1,20*
G04 #@! TO.N,N/C*
X162560000Y-125730000D03*
G04 #@! TO.P,A1,5*
G04 #@! TO.N,arduino5v*
X149860000Y-77470000D03*
G04 #@! TO.P,A1,21*
G04 #@! TO.N,N/C*
X160020000Y-125730000D03*
G04 #@! TO.P,A1,6*
X152400000Y-77470000D03*
G04 #@! TO.P,A1,22*
X157480000Y-125730000D03*
G04 #@! TO.P,A1,7*
X154940000Y-77470000D03*
G04 #@! TO.P,A1,23*
X153420000Y-125730000D03*
G04 #@! TO.P,A1,8*
X157480000Y-77470000D03*
G04 #@! TO.P,A1,24*
X150880000Y-125730000D03*
G04 #@! TO.P,A1,9*
X162560000Y-77470000D03*
G04 #@! TO.P,A1,25*
X148340000Y-125730000D03*
G04 #@! TO.P,A1,10*
X165100000Y-77470000D03*
G04 #@! TO.P,A1,26*
X145800000Y-125730000D03*
G04 #@! TO.P,A1,11*
X167640000Y-77470000D03*
G04 #@! TO.P,A1,27*
X143260000Y-125730000D03*
G04 #@! TO.P,A1,12*
X170180000Y-77470000D03*
G04 #@! TO.P,A1,28*
G04 #@! TO.N,arduino*
X140720000Y-125730000D03*
G04 #@! TO.P,A1,13*
G04 #@! TO.N,N/C*
X172720000Y-77470000D03*
G04 #@! TO.P,A1,29*
G04 #@! TO.N,arduinognd*
X138180000Y-125730000D03*
G04 #@! TO.P,A1,14*
G04 #@! TO.N,N/C*
X175260000Y-77470000D03*
G04 #@! TO.P,A1,30*
X135640000Y-125730000D03*
G04 #@! TO.P,A1,15*
G04 #@! TO.N,arduinoRx*
X175260000Y-125730000D03*
G04 #@! TO.P,A1,16*
G04 #@! TO.N,arduinoTx*
X172720000Y-125730000D03*
G04 #@! TD*
D13*
G04 #@! TO.P,C4,1*
G04 #@! TO.N,Net-(AOP1-Pad6)*
X170180000Y-101600000D03*
G04 #@! TO.P,C4,2*
G04 #@! TO.N,Net-(AOP1-Pad2)*
X172680000Y-101600000D03*
G04 #@! TD*
D14*
G04 #@! TO.P,AOP1,8*
G04 #@! TO.N,N/C*
X154940000Y-93980000D03*
G04 #@! TO.P,AOP1,4*
G04 #@! TO.N,arduinognd*
X147320000Y-101600000D03*
G04 #@! TO.P,AOP1,7*
G04 #@! TO.N,arduino5v*
X154940000Y-96520000D03*
G04 #@! TO.P,AOP1,3*
G04 #@! TO.N,Net-(AOP1-Pad3)*
X147320000Y-99060000D03*
G04 #@! TO.P,AOP1,6*
G04 #@! TO.N,Net-(AOP1-Pad6)*
X154940000Y-99060000D03*
G04 #@! TO.P,AOP1,2*
G04 #@! TO.N,Net-(AOP1-Pad2)*
X147320000Y-96520000D03*
G04 #@! TO.P,AOP1,5*
G04 #@! TO.N,N/C*
X154940000Y-101600000D03*
D15*
G04 #@! TO.P,AOP1,1*
X147320000Y-93980000D03*
G04 #@! TD*
D13*
G04 #@! TO.P,C1,1*
G04 #@! TO.N,Net-(AOP1-Pad3)*
X134620000Y-96520000D03*
G04 #@! TO.P,C1,2*
G04 #@! TO.N,arduinognd*
X134620000Y-99020000D03*
G04 #@! TD*
G04 #@! TO.P,C2,2*
G04 #@! TO.N,arduinognd*
X142240000Y-115530000D03*
G04 #@! TO.P,C2,1*
G04 #@! TO.N,arduino*
X142240000Y-113030000D03*
G04 #@! TD*
G04 #@! TO.P,C3,1*
G04 #@! TO.N,arduinognd*
X171450000Y-96520000D03*
G04 #@! TO.P,C3,2*
G04 #@! TO.N,arduino5v*
X168950000Y-96520000D03*
G04 #@! TD*
D16*
G04 #@! TO.P,R1,1*
G04 #@! TO.N,arduinognd*
X157480000Y-110490000D03*
D17*
G04 #@! TO.P,R1,2*
G04 #@! TO.N,Net-(AOP1-Pad3)*
X152400000Y-110490000D03*
G04 #@! TD*
G04 #@! TO.P,R3,2*
G04 #@! TO.N,Net-(AOP1-Pad6)*
X168910000Y-105410000D03*
D16*
G04 #@! TO.P,R3,1*
G04 #@! TO.N,Net-(AOP1-Pad2)*
X173990000Y-105410000D03*
G04 #@! TD*
G04 #@! TO.P,R5,1*
G04 #@! TO.N,Net-(AOP1-Pad3)*
X139700000Y-99060000D03*
D17*
G04 #@! TO.P,R5,2*
G04 #@! TO.N,Net-(J2-Pad2)*
X139700000Y-93980000D03*
G04 #@! TD*
D16*
G04 #@! TO.P,R6,1*
G04 #@! TO.N,Net-(AOP1-Pad6)*
X152400000Y-106680000D03*
D17*
G04 #@! TO.P,R6,2*
G04 #@! TO.N,arduino*
X147320000Y-106680000D03*
G04 #@! TD*
D16*
G04 #@! TO.P,Rcal1,1*
G04 #@! TO.N,Net-(AOP1-Pad2)*
X166370000Y-110490000D03*
D17*
G04 #@! TO.P,Rcal1,2*
G04 #@! TO.N,arduinognd*
X161290000Y-110490000D03*
G04 #@! TD*
D18*
G04 #@! TO.P,Rsensor1,1*
G04 #@! TO.N,N/C*
X121920000Y-97790000D03*
D19*
G04 #@! TO.P,Rsensor1,2*
G04 #@! TO.N,arduino3v*
X124460000Y-95250000D03*
G04 #@! TO.P,Rsensor1,3*
G04 #@! TO.N,N/C*
X121920000Y-92710000D03*
G04 #@! TO.P,Rsensor1,4*
X119380000Y-95250000D03*
G04 #@! TD*
D20*
G04 #@! TO.P,cGrove1,1*
G04 #@! TO.N,arduinognd*
X129540000Y-110490000D03*
D21*
G04 #@! TO.P,cGrove1,2*
G04 #@! TO.N,arduino3v*
X129540000Y-112490000D03*
G04 #@! TO.P,cGrove1,3*
G04 #@! TO.N,arduinoSDA*
X129540000Y-114490000D03*
G04 #@! TO.P,cGrove1,4*
G04 #@! TO.N,arduinoSCL*
X129540000Y-116490000D03*
G04 #@! TD*
D22*
G04 #@! TO.P,J1,1*
G04 #@! TO.N,arduinoTx*
X166370000Y-119380000D03*
D23*
G04 #@! TO.P,J1,2*
G04 #@! TO.N,arduinoRx*
X164370000Y-119380000D03*
G04 #@! TO.P,J1,3*
G04 #@! TO.N,N/C*
X162370000Y-119380000D03*
G04 #@! TO.P,J1,4*
X160370000Y-119380000D03*
G04 #@! TO.P,J1,5*
X158370000Y-119380000D03*
G04 #@! TO.P,J1,6*
G04 #@! TO.N,arduino3v*
X156370000Y-119380000D03*
G04 #@! TO.P,J1,7*
G04 #@! TO.N,N/C*
X154370000Y-119380000D03*
G04 #@! TO.P,J1,8*
G04 #@! TO.N,arduinognd*
X152370000Y-119380000D03*
G04 #@! TD*
D22*
G04 #@! TO.P,J2,1*
G04 #@! TO.N,arduino3v*
X146050000Y-83820000D03*
D23*
G04 #@! TO.P,J2,2*
G04 #@! TO.N,Net-(J2-Pad2)*
X146050000Y-85820000D03*
G04 #@! TD*
D24*
G04 #@! TO.N,arduino3v*
X127977999Y-112974371D02*
X127977999Y-126707999D01*
X128462370Y-112490000D02*
X127977999Y-112974371D01*
X128600001Y-127330001D02*
X154609999Y-127330001D01*
X127977999Y-126707999D02*
X128600001Y-127330001D01*
X155695001Y-120054999D02*
X156370000Y-119380000D01*
X155695001Y-126244999D02*
X155695001Y-120054999D01*
X154609999Y-127330001D02*
X155695001Y-126244999D01*
X135890000Y-83820000D02*
X124460000Y-95250000D01*
X146050000Y-83820000D02*
X135890000Y-83820000D01*
X124460000Y-96098528D02*
X124460000Y-95250000D01*
X124460000Y-108487630D02*
X124460000Y-96098528D01*
X128462370Y-112490000D02*
X124460000Y-108487630D01*
X129540000Y-112490000D02*
X128462370Y-112490000D01*
X146050000Y-78740000D02*
X147320000Y-77470000D01*
X146050000Y-83820000D02*
X146050000Y-78740000D01*
G04 #@! TO.N,arduino5v*
X154940000Y-96520000D02*
X155340000Y-96520000D01*
X168950000Y-96520000D02*
X154940000Y-96520000D01*
X149860000Y-78601370D02*
X149860000Y-77470000D01*
X149860000Y-91840000D02*
X149860000Y-78601370D01*
X154540000Y-96520000D02*
X149860000Y-91840000D01*
X154940000Y-96520000D02*
X154540000Y-96520000D01*
G04 #@! TO.N,arduino*
X140970000Y-125480000D02*
X140720000Y-125730000D01*
X142240000Y-111760000D02*
X147320000Y-106680000D01*
X142240000Y-113030000D02*
X142240000Y-111760000D01*
X143840001Y-121478629D02*
X143840001Y-113360001D01*
X140720000Y-124598630D02*
X143840001Y-121478629D01*
X140720000Y-125730000D02*
X140720000Y-124598630D01*
X143510000Y-113030000D02*
X142240000Y-113030000D01*
X143840001Y-113360001D02*
X143510000Y-113030000D01*
G04 #@! TO.N,arduinognd*
X157480000Y-110490000D02*
X161290000Y-110490000D01*
X152330000Y-119340000D02*
X152370000Y-119380000D01*
X134620000Y-110450000D02*
X134620000Y-99020000D01*
X134660000Y-110490000D02*
X134620000Y-110450000D01*
X138470000Y-125440000D02*
X138180000Y-125730000D01*
X134660000Y-110530000D02*
X134620000Y-110490000D01*
X134660000Y-110490000D02*
X134620000Y-110490000D01*
X134620000Y-110490000D02*
X129540000Y-110490000D01*
X152370000Y-115600000D02*
X157480000Y-110490000D01*
X152370000Y-119380000D02*
X152370000Y-115600000D01*
X134620000Y-110490000D02*
X135890000Y-110490000D01*
X135890000Y-110490000D02*
X144780000Y-101600000D01*
X137200000Y-110490000D02*
X142240000Y-115530000D01*
X135890000Y-110490000D02*
X137200000Y-110490000D01*
X138180000Y-119590000D02*
X142240000Y-115530000D01*
X138180000Y-125730000D02*
X138180000Y-119590000D01*
X148820001Y-112050001D02*
X152370000Y-115600000D01*
X148040001Y-105179999D02*
X148820001Y-105959999D01*
X148820001Y-105959999D02*
X148820001Y-112050001D01*
X146599999Y-105179999D02*
X148040001Y-105179999D01*
X140639999Y-111139999D02*
X146599999Y-105179999D01*
X140639999Y-113929999D02*
X140639999Y-111139999D01*
X142240000Y-115530000D02*
X140639999Y-113929999D01*
X144780000Y-101600000D02*
X147320000Y-101600000D01*
X176690012Y-106627061D02*
X176690012Y-100628642D01*
X176690012Y-100628642D02*
X172581370Y-96520000D01*
X170127061Y-113190012D02*
X176690012Y-106627061D01*
X163990012Y-113190012D02*
X170127061Y-113190012D01*
X161290000Y-110490000D02*
X163990012Y-113190012D01*
X172581370Y-96520000D02*
X171450000Y-96520000D01*
G04 #@! TO.N,Net-(AOP1-Pad2)*
X147720000Y-96520000D02*
X147320000Y-96520000D01*
X149320010Y-98120010D02*
X147720000Y-96520000D01*
X149320010Y-98642765D02*
X149320010Y-98120010D01*
X153877255Y-103200010D02*
X149320010Y-98642765D01*
X159080010Y-103200010D02*
X153877255Y-103200010D01*
X166370000Y-110490000D02*
X159080010Y-103200010D01*
X166370000Y-110490000D02*
X171450000Y-105410000D01*
X171450000Y-105410000D02*
X173000051Y-105410000D01*
X173000051Y-105410000D02*
X173990000Y-105410000D01*
X173990000Y-102910000D02*
X172680000Y-101600000D01*
X173990000Y-105410000D02*
X173990000Y-102910000D01*
G04 #@! TO.N,Net-(AOP1-Pad6)*
X154540000Y-99060000D02*
X154940000Y-99060000D01*
X156940000Y-99060000D02*
X154940000Y-99060000D01*
X172508002Y-99060000D02*
X156940000Y-99060000D01*
X160339998Y-106680000D02*
X165649999Y-111990001D01*
X152400000Y-106680000D02*
X160339998Y-106680000D01*
X165649999Y-111990001D02*
X169630001Y-111990001D01*
X169630001Y-111990001D02*
X175490001Y-106130001D01*
X175490001Y-106130001D02*
X175490001Y-102041999D01*
X175490001Y-102041999D02*
X172508002Y-99060000D01*
X168910000Y-102870000D02*
X170180000Y-101600000D01*
X168910000Y-105410000D02*
X168910000Y-102870000D01*
X172508002Y-99271998D02*
X172508002Y-99060000D01*
X170180000Y-101600000D02*
X172508002Y-99271998D01*
G04 #@! TO.N,Net-(AOP1-Pad3)*
X137160000Y-96520000D02*
X139700000Y-99060000D01*
X134620000Y-96520000D02*
X137160000Y-96520000D01*
X139700000Y-99060000D02*
X144780000Y-99060000D01*
X144780000Y-99060000D02*
X147320000Y-99060000D01*
X147720000Y-99060000D02*
X147320000Y-99060000D01*
X150899999Y-102239999D02*
X147720000Y-99060000D01*
X150899999Y-108989999D02*
X150899999Y-102239999D01*
X152400000Y-110490000D02*
X150899999Y-108989999D01*
G04 #@! TO.N,arduinoSCL*
X129540000Y-124710000D02*
X130560000Y-125730000D01*
X129540000Y-116490000D02*
X129540000Y-124710000D01*
G04 #@! TO.N,arduinoSDA*
X133100000Y-124598630D02*
X133100000Y-125730000D01*
X133100000Y-116972370D02*
X133100000Y-124598630D01*
X130617630Y-114490000D02*
X133100000Y-116972370D01*
X129540000Y-114490000D02*
X130617630Y-114490000D01*
G04 #@! TO.N,arduinoRx*
X174460001Y-124930001D02*
X175260000Y-125730000D01*
X167434999Y-117904999D02*
X174460001Y-124930001D01*
X164890407Y-117904999D02*
X167434999Y-117904999D01*
X164370000Y-118425406D02*
X164890407Y-117904999D01*
X164370000Y-119380000D02*
X164370000Y-118425406D01*
G04 #@! TO.N,arduinoTx*
X172720000Y-125730000D02*
X166370000Y-119380000D01*
G04 #@! TO.N,Net-(J2-Pad2)*
X139700000Y-92170000D02*
X146050000Y-85820000D01*
X139700000Y-93980000D02*
X139700000Y-92170000D01*
G04 #@! TD*
D25*
G36*
X177090001Y-77400071D02*
X177076091Y-77470000D01*
X177107206Y-77626422D01*
X177131196Y-77747028D01*
X177288120Y-77981881D01*
X177347402Y-78021492D01*
X179630000Y-80304091D01*
X179630001Y-112735908D01*
X177347402Y-115018508D01*
X177288119Y-115058120D01*
X177131195Y-115292973D01*
X177102999Y-115434724D01*
X177076091Y-115570000D01*
X177090000Y-115639924D01*
X177090001Y-126705908D01*
X176235910Y-127560000D01*
X155843710Y-127560000D01*
X156354777Y-127048934D01*
X156441194Y-126991192D01*
X156547182Y-126832570D01*
X156920091Y-127081740D01*
X157338667Y-127165000D01*
X157621333Y-127165000D01*
X158039909Y-127081740D01*
X158514577Y-126764577D01*
X158750000Y-126412242D01*
X158985423Y-126764577D01*
X159460091Y-127081740D01*
X159878667Y-127165000D01*
X160161333Y-127165000D01*
X160579909Y-127081740D01*
X161054577Y-126764577D01*
X161290000Y-126412242D01*
X161525423Y-126764577D01*
X162000091Y-127081740D01*
X162418667Y-127165000D01*
X162701333Y-127165000D01*
X163119909Y-127081740D01*
X163594577Y-126764577D01*
X163830000Y-126412242D01*
X164065423Y-126764577D01*
X164540091Y-127081740D01*
X164958667Y-127165000D01*
X165241333Y-127165000D01*
X165659909Y-127081740D01*
X166134577Y-126764577D01*
X166370000Y-126412242D01*
X166605423Y-126764577D01*
X167080091Y-127081740D01*
X167498667Y-127165000D01*
X167781333Y-127165000D01*
X168199909Y-127081740D01*
X168674577Y-126764577D01*
X168910000Y-126412242D01*
X169145423Y-126764577D01*
X169620091Y-127081740D01*
X170038667Y-127165000D01*
X170321333Y-127165000D01*
X170739909Y-127081740D01*
X171214577Y-126764577D01*
X171450000Y-126412242D01*
X171685423Y-126764577D01*
X172160091Y-127081740D01*
X172578667Y-127165000D01*
X172861333Y-127165000D01*
X173279909Y-127081740D01*
X173754577Y-126764577D01*
X173990000Y-126412242D01*
X174225423Y-126764577D01*
X174700091Y-127081740D01*
X175118667Y-127165000D01*
X175401333Y-127165000D01*
X175819909Y-127081740D01*
X176294577Y-126764577D01*
X176611740Y-126289909D01*
X176723113Y-125730000D01*
X176611740Y-125170091D01*
X176294577Y-124695423D01*
X175819909Y-124378260D01*
X175401333Y-124295000D01*
X175288710Y-124295000D01*
X175263937Y-124270227D01*
X175263935Y-124270224D01*
X168238936Y-117245226D01*
X168181192Y-117158806D01*
X167838836Y-116930051D01*
X167536934Y-116869999D01*
X167536933Y-116869999D01*
X167434999Y-116849723D01*
X167333065Y-116869999D01*
X164992341Y-116869999D01*
X164890407Y-116849723D01*
X164788472Y-116869999D01*
X164486570Y-116930051D01*
X164144214Y-117158806D01*
X164086470Y-117245226D01*
X163710225Y-117621471D01*
X163623808Y-117679213D01*
X163566066Y-117765630D01*
X163395052Y-118021570D01*
X163314724Y-118425406D01*
X163317708Y-118440409D01*
X163314457Y-118435543D01*
X162881136Y-118146007D01*
X162499022Y-118070000D01*
X162240978Y-118070000D01*
X161858864Y-118146007D01*
X161425543Y-118435543D01*
X161370000Y-118518669D01*
X161314457Y-118435543D01*
X160881136Y-118146007D01*
X160499022Y-118070000D01*
X160240978Y-118070000D01*
X159858864Y-118146007D01*
X159425543Y-118435543D01*
X159370000Y-118518669D01*
X159314457Y-118435543D01*
X158881136Y-118146007D01*
X158499022Y-118070000D01*
X158240978Y-118070000D01*
X157858864Y-118146007D01*
X157425543Y-118435543D01*
X157370000Y-118518669D01*
X157314457Y-118435543D01*
X156881136Y-118146007D01*
X156499022Y-118070000D01*
X156240978Y-118070000D01*
X155858864Y-118146007D01*
X155425543Y-118435543D01*
X155370000Y-118518669D01*
X155314457Y-118435543D01*
X154881136Y-118146007D01*
X154499022Y-118070000D01*
X154240978Y-118070000D01*
X153858864Y-118146007D01*
X153425543Y-118435543D01*
X153405000Y-118466288D01*
X153405000Y-116028710D01*
X157608711Y-111825000D01*
X157745548Y-111825000D01*
X158236217Y-111621758D01*
X158332975Y-111525000D01*
X160436051Y-111525000D01*
X160769109Y-111747542D01*
X161158515Y-111825000D01*
X161161290Y-111825000D01*
X163186077Y-113849788D01*
X163243819Y-113936205D01*
X163586175Y-114164960D01*
X163823260Y-114212119D01*
X163990012Y-114245288D01*
X164091946Y-114225012D01*
X170025127Y-114225012D01*
X170127061Y-114245288D01*
X170228995Y-114225012D01*
X170228996Y-114225012D01*
X170530898Y-114164960D01*
X170873254Y-113936205D01*
X170930998Y-113849785D01*
X177349788Y-107430996D01*
X177436205Y-107373254D01*
X177664960Y-107030898D01*
X177725012Y-106728996D01*
X177725012Y-106728995D01*
X177745288Y-106627062D01*
X177725012Y-106525127D01*
X177725012Y-100730576D01*
X177745288Y-100628641D01*
X177664960Y-100224805D01*
X177642879Y-100191758D01*
X177436205Y-99882449D01*
X177349788Y-99824707D01*
X173385307Y-95860227D01*
X173327563Y-95773807D01*
X172985207Y-95545052D01*
X172683305Y-95485000D01*
X172683304Y-95485000D01*
X172581370Y-95464724D01*
X172479436Y-95485000D01*
X172444396Y-95485000D01*
X172262862Y-95303466D01*
X171735439Y-95085000D01*
X171164561Y-95085000D01*
X170637138Y-95303466D01*
X170233466Y-95707138D01*
X170200000Y-95787932D01*
X170166534Y-95707138D01*
X169762862Y-95303466D01*
X169235439Y-95085000D01*
X168664561Y-95085000D01*
X168137138Y-95303466D01*
X167955604Y-95485000D01*
X156373944Y-95485000D01*
X156022242Y-95250000D01*
X156374577Y-95014577D01*
X156691740Y-94539909D01*
X156803113Y-93980000D01*
X156691740Y-93420091D01*
X156374577Y-92945423D01*
X155899909Y-92628260D01*
X155481333Y-92545000D01*
X154398667Y-92545000D01*
X153980091Y-92628260D01*
X153505423Y-92945423D01*
X153188260Y-93420091D01*
X153141065Y-93657355D01*
X150895000Y-91411290D01*
X150895000Y-78503944D01*
X151130000Y-78152242D01*
X151365423Y-78504577D01*
X151840091Y-78821740D01*
X152258667Y-78905000D01*
X152541333Y-78905000D01*
X152959909Y-78821740D01*
X153434577Y-78504577D01*
X153670000Y-78152242D01*
X153905423Y-78504577D01*
X154380091Y-78821740D01*
X154798667Y-78905000D01*
X155081333Y-78905000D01*
X155499909Y-78821740D01*
X155974577Y-78504577D01*
X156210000Y-78152242D01*
X156445423Y-78504577D01*
X156920091Y-78821740D01*
X157338667Y-78905000D01*
X157621333Y-78905000D01*
X158039909Y-78821740D01*
X158514577Y-78504577D01*
X158831740Y-78029909D01*
X158943113Y-77470000D01*
X161096887Y-77470000D01*
X161208260Y-78029909D01*
X161525423Y-78504577D01*
X162000091Y-78821740D01*
X162418667Y-78905000D01*
X162701333Y-78905000D01*
X163119909Y-78821740D01*
X163594577Y-78504577D01*
X163830000Y-78152242D01*
X164065423Y-78504577D01*
X164540091Y-78821740D01*
X164958667Y-78905000D01*
X165241333Y-78905000D01*
X165659909Y-78821740D01*
X166134577Y-78504577D01*
X166370000Y-78152242D01*
X166605423Y-78504577D01*
X167080091Y-78821740D01*
X167498667Y-78905000D01*
X167781333Y-78905000D01*
X168199909Y-78821740D01*
X168674577Y-78504577D01*
X168910000Y-78152242D01*
X169145423Y-78504577D01*
X169620091Y-78821740D01*
X170038667Y-78905000D01*
X170321333Y-78905000D01*
X170739909Y-78821740D01*
X171214577Y-78504577D01*
X171450000Y-78152242D01*
X171685423Y-78504577D01*
X172160091Y-78821740D01*
X172578667Y-78905000D01*
X172861333Y-78905000D01*
X173279909Y-78821740D01*
X173754577Y-78504577D01*
X173990000Y-78152242D01*
X174225423Y-78504577D01*
X174700091Y-78821740D01*
X175118667Y-78905000D01*
X175401333Y-78905000D01*
X175819909Y-78821740D01*
X176294577Y-78504577D01*
X176611740Y-78029909D01*
X176723113Y-77470000D01*
X176611740Y-76910091D01*
X176294577Y-76435423D01*
X175819909Y-76118260D01*
X175401333Y-76035000D01*
X175118667Y-76035000D01*
X174700091Y-76118260D01*
X174225423Y-76435423D01*
X173990000Y-76787758D01*
X173754577Y-76435423D01*
X173279909Y-76118260D01*
X172861333Y-76035000D01*
X172578667Y-76035000D01*
X172160091Y-76118260D01*
X171685423Y-76435423D01*
X171450000Y-76787758D01*
X171214577Y-76435423D01*
X170739909Y-76118260D01*
X170321333Y-76035000D01*
X170038667Y-76035000D01*
X169620091Y-76118260D01*
X169145423Y-76435423D01*
X168910000Y-76787758D01*
X168674577Y-76435423D01*
X168199909Y-76118260D01*
X167781333Y-76035000D01*
X167498667Y-76035000D01*
X167080091Y-76118260D01*
X166605423Y-76435423D01*
X166370000Y-76787758D01*
X166134577Y-76435423D01*
X165659909Y-76118260D01*
X165241333Y-76035000D01*
X164958667Y-76035000D01*
X164540091Y-76118260D01*
X164065423Y-76435423D01*
X163830000Y-76787758D01*
X163594577Y-76435423D01*
X163119909Y-76118260D01*
X162701333Y-76035000D01*
X162418667Y-76035000D01*
X162000091Y-76118260D01*
X161525423Y-76435423D01*
X161208260Y-76910091D01*
X161096887Y-77470000D01*
X158943113Y-77470000D01*
X158831740Y-76910091D01*
X158514577Y-76435423D01*
X158039909Y-76118260D01*
X157621333Y-76035000D01*
X157338667Y-76035000D01*
X156920091Y-76118260D01*
X156445423Y-76435423D01*
X156210000Y-76787758D01*
X155974577Y-76435423D01*
X155499909Y-76118260D01*
X155081333Y-76035000D01*
X154798667Y-76035000D01*
X154380091Y-76118260D01*
X153905423Y-76435423D01*
X153670000Y-76787758D01*
X153434577Y-76435423D01*
X152959909Y-76118260D01*
X152541333Y-76035000D01*
X152258667Y-76035000D01*
X151840091Y-76118260D01*
X151365423Y-76435423D01*
X151130000Y-76787758D01*
X150894577Y-76435423D01*
X150419909Y-76118260D01*
X150001333Y-76035000D01*
X149718667Y-76035000D01*
X149300091Y-76118260D01*
X148825423Y-76435423D01*
X148590000Y-76787758D01*
X148354577Y-76435423D01*
X147879909Y-76118260D01*
X147461333Y-76035000D01*
X147178667Y-76035000D01*
X146760091Y-76118260D01*
X146285423Y-76435423D01*
X146050000Y-76787758D01*
X145814577Y-76435423D01*
X145339909Y-76118260D01*
X144921333Y-76035000D01*
X144638667Y-76035000D01*
X144220091Y-76118260D01*
X143745423Y-76435423D01*
X143510000Y-76787758D01*
X143274577Y-76435423D01*
X142799909Y-76118260D01*
X142381333Y-76035000D01*
X142098667Y-76035000D01*
X141680091Y-76118260D01*
X141205423Y-76435423D01*
X141134265Y-76541918D01*
X141110597Y-76484778D01*
X141098157Y-76422235D01*
X141062729Y-76369214D01*
X141038327Y-76310302D01*
X140993236Y-76265211D01*
X140957809Y-76212191D01*
X140904791Y-76176765D01*
X140859699Y-76131673D01*
X140800785Y-76107270D01*
X140747765Y-76071843D01*
X140685224Y-76059403D01*
X140626310Y-76035000D01*
X140562541Y-76035000D01*
X140500000Y-76022560D01*
X138900000Y-76022560D01*
X138837459Y-76035000D01*
X138773690Y-76035000D01*
X138714776Y-76059403D01*
X138652235Y-76071843D01*
X138599215Y-76107270D01*
X138540301Y-76131673D01*
X138495209Y-76176765D01*
X138442191Y-76212191D01*
X138406764Y-76265211D01*
X138361673Y-76310302D01*
X138337271Y-76369214D01*
X138301843Y-76422235D01*
X138289403Y-76484778D01*
X138265000Y-76543691D01*
X138265000Y-76607459D01*
X138252560Y-76670000D01*
X138252560Y-78270000D01*
X138265000Y-78332541D01*
X138265000Y-78396309D01*
X138289403Y-78455222D01*
X138301843Y-78517765D01*
X138337271Y-78570786D01*
X138361673Y-78629698D01*
X138406764Y-78674789D01*
X138442191Y-78727809D01*
X138495209Y-78763235D01*
X138540301Y-78808327D01*
X138599215Y-78832730D01*
X138652235Y-78868157D01*
X138714776Y-78880597D01*
X138773690Y-78905000D01*
X138837459Y-78905000D01*
X138900000Y-78917440D01*
X140500000Y-78917440D01*
X140562541Y-78905000D01*
X140626310Y-78905000D01*
X140685224Y-78880597D01*
X140747765Y-78868157D01*
X140800785Y-78832730D01*
X140859699Y-78808327D01*
X140904791Y-78763235D01*
X140957809Y-78727809D01*
X140993236Y-78674789D01*
X141038327Y-78629698D01*
X141062729Y-78570786D01*
X141098157Y-78517765D01*
X141110597Y-78455222D01*
X141134265Y-78398082D01*
X141205423Y-78504577D01*
X141680091Y-78821740D01*
X142098667Y-78905000D01*
X142381333Y-78905000D01*
X142799909Y-78821740D01*
X143274577Y-78504577D01*
X143510000Y-78152242D01*
X143745423Y-78504577D01*
X144220091Y-78821740D01*
X144638667Y-78905000D01*
X144921333Y-78905000D01*
X145015001Y-78886368D01*
X145015000Y-82621836D01*
X144917191Y-82687191D01*
X144851837Y-82785000D01*
X135991934Y-82785000D01*
X135889999Y-82764724D01*
X135788065Y-82785000D01*
X135486163Y-82845052D01*
X135143807Y-83073807D01*
X135086065Y-83160224D01*
X124204703Y-94041587D01*
X123978127Y-94086656D01*
X123569615Y-94359615D01*
X123296656Y-94768127D01*
X123200805Y-95250000D01*
X123296656Y-95731873D01*
X123425000Y-95923953D01*
X123425000Y-96200462D01*
X123425001Y-96200467D01*
X123425000Y-108385696D01*
X123404724Y-108487630D01*
X123425000Y-108589564D01*
X123485052Y-108891466D01*
X123713807Y-109233823D01*
X123800227Y-109291567D01*
X127033550Y-112524890D01*
X127029979Y-112530235D01*
X127003051Y-112570535D01*
X126922723Y-112974371D01*
X126942999Y-113076305D01*
X126943000Y-126606060D01*
X126922723Y-126707999D01*
X127003051Y-127111835D01*
X127003052Y-127111836D01*
X127231807Y-127454192D01*
X127318224Y-127511934D01*
X127366290Y-127560000D01*
X112470000Y-127560000D01*
X112470000Y-111454821D01*
X120655625Y-111454821D01*
X120655625Y-127305178D01*
X125863125Y-127305178D01*
X125863125Y-111454821D01*
X120655625Y-111454821D01*
X112470000Y-111454821D01*
X112470000Y-106195178D01*
X116316875Y-106195178D01*
X116316875Y-97468365D01*
X120685000Y-97468365D01*
X120685000Y-98111636D01*
X120756656Y-98471873D01*
X121029616Y-98880385D01*
X121438128Y-99153344D01*
X121920000Y-99249195D01*
X122401873Y-99153344D01*
X122810385Y-98880385D01*
X123083344Y-98471872D01*
X123155000Y-98111635D01*
X123155000Y-97468364D01*
X123083344Y-97108127D01*
X122810385Y-96699615D01*
X122401872Y-96426656D01*
X121920000Y-96330805D01*
X121438127Y-96426656D01*
X121029615Y-96699615D01*
X120756656Y-97108128D01*
X120685000Y-97468365D01*
X116316875Y-97468365D01*
X116316875Y-95250000D01*
X118120805Y-95250000D01*
X118216656Y-95731873D01*
X118489615Y-96140385D01*
X118898127Y-96413344D01*
X119258364Y-96485000D01*
X119501636Y-96485000D01*
X119861873Y-96413344D01*
X120270385Y-96140385D01*
X120543344Y-95731873D01*
X120639195Y-95250000D01*
X120543344Y-94768127D01*
X120270385Y-94359615D01*
X119861873Y-94086656D01*
X119501636Y-94015000D01*
X119258364Y-94015000D01*
X118898127Y-94086656D01*
X118489615Y-94359615D01*
X118216656Y-94768127D01*
X118120805Y-95250000D01*
X116316875Y-95250000D01*
X116316875Y-92710000D01*
X120660805Y-92710000D01*
X120756656Y-93191873D01*
X121029615Y-93600385D01*
X121438127Y-93873344D01*
X121798364Y-93945000D01*
X122041636Y-93945000D01*
X122401873Y-93873344D01*
X122810385Y-93600385D01*
X123083344Y-93191873D01*
X123179195Y-92710000D01*
X123083344Y-92228127D01*
X122810385Y-91819615D01*
X122401873Y-91546656D01*
X122041636Y-91475000D01*
X121798364Y-91475000D01*
X121438127Y-91546656D01*
X121029615Y-91819615D01*
X120756656Y-92228127D01*
X120660805Y-92710000D01*
X116316875Y-92710000D01*
X116316875Y-86844821D01*
X112470000Y-86844821D01*
X112470000Y-75640000D01*
X177090000Y-75640000D01*
X177090001Y-77400071D01*
X177090001Y-77400071D01*
G37*
X177090001Y-77400071D02*
X177076091Y-77470000D01*
X177107206Y-77626422D01*
X177131196Y-77747028D01*
X177288120Y-77981881D01*
X177347402Y-78021492D01*
X179630000Y-80304091D01*
X179630001Y-112735908D01*
X177347402Y-115018508D01*
X177288119Y-115058120D01*
X177131195Y-115292973D01*
X177102999Y-115434724D01*
X177076091Y-115570000D01*
X177090000Y-115639924D01*
X177090001Y-126705908D01*
X176235910Y-127560000D01*
X155843710Y-127560000D01*
X156354777Y-127048934D01*
X156441194Y-126991192D01*
X156547182Y-126832570D01*
X156920091Y-127081740D01*
X157338667Y-127165000D01*
X157621333Y-127165000D01*
X158039909Y-127081740D01*
X158514577Y-126764577D01*
X158750000Y-126412242D01*
X158985423Y-126764577D01*
X159460091Y-127081740D01*
X159878667Y-127165000D01*
X160161333Y-127165000D01*
X160579909Y-127081740D01*
X161054577Y-126764577D01*
X161290000Y-126412242D01*
X161525423Y-126764577D01*
X162000091Y-127081740D01*
X162418667Y-127165000D01*
X162701333Y-127165000D01*
X163119909Y-127081740D01*
X163594577Y-126764577D01*
X163830000Y-126412242D01*
X164065423Y-126764577D01*
X164540091Y-127081740D01*
X164958667Y-127165000D01*
X165241333Y-127165000D01*
X165659909Y-127081740D01*
X166134577Y-126764577D01*
X166370000Y-126412242D01*
X166605423Y-126764577D01*
X167080091Y-127081740D01*
X167498667Y-127165000D01*
X167781333Y-127165000D01*
X168199909Y-127081740D01*
X168674577Y-126764577D01*
X168910000Y-126412242D01*
X169145423Y-126764577D01*
X169620091Y-127081740D01*
X170038667Y-127165000D01*
X170321333Y-127165000D01*
X170739909Y-127081740D01*
X171214577Y-126764577D01*
X171450000Y-126412242D01*
X171685423Y-126764577D01*
X172160091Y-127081740D01*
X172578667Y-127165000D01*
X172861333Y-127165000D01*
X173279909Y-127081740D01*
X173754577Y-126764577D01*
X173990000Y-126412242D01*
X174225423Y-126764577D01*
X174700091Y-127081740D01*
X175118667Y-127165000D01*
X175401333Y-127165000D01*
X175819909Y-127081740D01*
X176294577Y-126764577D01*
X176611740Y-126289909D01*
X176723113Y-125730000D01*
X176611740Y-125170091D01*
X176294577Y-124695423D01*
X175819909Y-124378260D01*
X175401333Y-124295000D01*
X175288710Y-124295000D01*
X175263937Y-124270227D01*
X175263935Y-124270224D01*
X168238936Y-117245226D01*
X168181192Y-117158806D01*
X167838836Y-116930051D01*
X167536934Y-116869999D01*
X167536933Y-116869999D01*
X167434999Y-116849723D01*
X167333065Y-116869999D01*
X164992341Y-116869999D01*
X164890407Y-116849723D01*
X164788472Y-116869999D01*
X164486570Y-116930051D01*
X164144214Y-117158806D01*
X164086470Y-117245226D01*
X163710225Y-117621471D01*
X163623808Y-117679213D01*
X163566066Y-117765630D01*
X163395052Y-118021570D01*
X163314724Y-118425406D01*
X163317708Y-118440409D01*
X163314457Y-118435543D01*
X162881136Y-118146007D01*
X162499022Y-118070000D01*
X162240978Y-118070000D01*
X161858864Y-118146007D01*
X161425543Y-118435543D01*
X161370000Y-118518669D01*
X161314457Y-118435543D01*
X160881136Y-118146007D01*
X160499022Y-118070000D01*
X160240978Y-118070000D01*
X159858864Y-118146007D01*
X159425543Y-118435543D01*
X159370000Y-118518669D01*
X159314457Y-118435543D01*
X158881136Y-118146007D01*
X158499022Y-118070000D01*
X158240978Y-118070000D01*
X157858864Y-118146007D01*
X157425543Y-118435543D01*
X157370000Y-118518669D01*
X157314457Y-118435543D01*
X156881136Y-118146007D01*
X156499022Y-118070000D01*
X156240978Y-118070000D01*
X155858864Y-118146007D01*
X155425543Y-118435543D01*
X155370000Y-118518669D01*
X155314457Y-118435543D01*
X154881136Y-118146007D01*
X154499022Y-118070000D01*
X154240978Y-118070000D01*
X153858864Y-118146007D01*
X153425543Y-118435543D01*
X153405000Y-118466288D01*
X153405000Y-116028710D01*
X157608711Y-111825000D01*
X157745548Y-111825000D01*
X158236217Y-111621758D01*
X158332975Y-111525000D01*
X160436051Y-111525000D01*
X160769109Y-111747542D01*
X161158515Y-111825000D01*
X161161290Y-111825000D01*
X163186077Y-113849788D01*
X163243819Y-113936205D01*
X163586175Y-114164960D01*
X163823260Y-114212119D01*
X163990012Y-114245288D01*
X164091946Y-114225012D01*
X170025127Y-114225012D01*
X170127061Y-114245288D01*
X170228995Y-114225012D01*
X170228996Y-114225012D01*
X170530898Y-114164960D01*
X170873254Y-113936205D01*
X170930998Y-113849785D01*
X177349788Y-107430996D01*
X177436205Y-107373254D01*
X177664960Y-107030898D01*
X177725012Y-106728996D01*
X177725012Y-106728995D01*
X177745288Y-106627062D01*
X177725012Y-106525127D01*
X177725012Y-100730576D01*
X177745288Y-100628641D01*
X177664960Y-100224805D01*
X177642879Y-100191758D01*
X177436205Y-99882449D01*
X177349788Y-99824707D01*
X173385307Y-95860227D01*
X173327563Y-95773807D01*
X172985207Y-95545052D01*
X172683305Y-95485000D01*
X172683304Y-95485000D01*
X172581370Y-95464724D01*
X172479436Y-95485000D01*
X172444396Y-95485000D01*
X172262862Y-95303466D01*
X171735439Y-95085000D01*
X171164561Y-95085000D01*
X170637138Y-95303466D01*
X170233466Y-95707138D01*
X170200000Y-95787932D01*
X170166534Y-95707138D01*
X169762862Y-95303466D01*
X169235439Y-95085000D01*
X168664561Y-95085000D01*
X168137138Y-95303466D01*
X167955604Y-95485000D01*
X156373944Y-95485000D01*
X156022242Y-95250000D01*
X156374577Y-95014577D01*
X156691740Y-94539909D01*
X156803113Y-93980000D01*
X156691740Y-93420091D01*
X156374577Y-92945423D01*
X155899909Y-92628260D01*
X155481333Y-92545000D01*
X154398667Y-92545000D01*
X153980091Y-92628260D01*
X153505423Y-92945423D01*
X153188260Y-93420091D01*
X153141065Y-93657355D01*
X150895000Y-91411290D01*
X150895000Y-78503944D01*
X151130000Y-78152242D01*
X151365423Y-78504577D01*
X151840091Y-78821740D01*
X152258667Y-78905000D01*
X152541333Y-78905000D01*
X152959909Y-78821740D01*
X153434577Y-78504577D01*
X153670000Y-78152242D01*
X153905423Y-78504577D01*
X154380091Y-78821740D01*
X154798667Y-78905000D01*
X155081333Y-78905000D01*
X155499909Y-78821740D01*
X155974577Y-78504577D01*
X156210000Y-78152242D01*
X156445423Y-78504577D01*
X156920091Y-78821740D01*
X157338667Y-78905000D01*
X157621333Y-78905000D01*
X158039909Y-78821740D01*
X158514577Y-78504577D01*
X158831740Y-78029909D01*
X158943113Y-77470000D01*
X161096887Y-77470000D01*
X161208260Y-78029909D01*
X161525423Y-78504577D01*
X162000091Y-78821740D01*
X162418667Y-78905000D01*
X162701333Y-78905000D01*
X163119909Y-78821740D01*
X163594577Y-78504577D01*
X163830000Y-78152242D01*
X164065423Y-78504577D01*
X164540091Y-78821740D01*
X164958667Y-78905000D01*
X165241333Y-78905000D01*
X165659909Y-78821740D01*
X166134577Y-78504577D01*
X166370000Y-78152242D01*
X166605423Y-78504577D01*
X167080091Y-78821740D01*
X167498667Y-78905000D01*
X167781333Y-78905000D01*
X168199909Y-78821740D01*
X168674577Y-78504577D01*
X168910000Y-78152242D01*
X169145423Y-78504577D01*
X169620091Y-78821740D01*
X170038667Y-78905000D01*
X170321333Y-78905000D01*
X170739909Y-78821740D01*
X171214577Y-78504577D01*
X171450000Y-78152242D01*
X171685423Y-78504577D01*
X172160091Y-78821740D01*
X172578667Y-78905000D01*
X172861333Y-78905000D01*
X173279909Y-78821740D01*
X173754577Y-78504577D01*
X173990000Y-78152242D01*
X174225423Y-78504577D01*
X174700091Y-78821740D01*
X175118667Y-78905000D01*
X175401333Y-78905000D01*
X175819909Y-78821740D01*
X176294577Y-78504577D01*
X176611740Y-78029909D01*
X176723113Y-77470000D01*
X176611740Y-76910091D01*
X176294577Y-76435423D01*
X175819909Y-76118260D01*
X175401333Y-76035000D01*
X175118667Y-76035000D01*
X174700091Y-76118260D01*
X174225423Y-76435423D01*
X173990000Y-76787758D01*
X173754577Y-76435423D01*
X173279909Y-76118260D01*
X172861333Y-76035000D01*
X172578667Y-76035000D01*
X172160091Y-76118260D01*
X171685423Y-76435423D01*
X171450000Y-76787758D01*
X171214577Y-76435423D01*
X170739909Y-76118260D01*
X170321333Y-76035000D01*
X170038667Y-76035000D01*
X169620091Y-76118260D01*
X169145423Y-76435423D01*
X168910000Y-76787758D01*
X168674577Y-76435423D01*
X168199909Y-76118260D01*
X167781333Y-76035000D01*
X167498667Y-76035000D01*
X167080091Y-76118260D01*
X166605423Y-76435423D01*
X166370000Y-76787758D01*
X166134577Y-76435423D01*
X165659909Y-76118260D01*
X165241333Y-76035000D01*
X164958667Y-76035000D01*
X164540091Y-76118260D01*
X164065423Y-76435423D01*
X163830000Y-76787758D01*
X163594577Y-76435423D01*
X163119909Y-76118260D01*
X162701333Y-76035000D01*
X162418667Y-76035000D01*
X162000091Y-76118260D01*
X161525423Y-76435423D01*
X161208260Y-76910091D01*
X161096887Y-77470000D01*
X158943113Y-77470000D01*
X158831740Y-76910091D01*
X158514577Y-76435423D01*
X158039909Y-76118260D01*
X157621333Y-76035000D01*
X157338667Y-76035000D01*
X156920091Y-76118260D01*
X156445423Y-76435423D01*
X156210000Y-76787758D01*
X155974577Y-76435423D01*
X155499909Y-76118260D01*
X155081333Y-76035000D01*
X154798667Y-76035000D01*
X154380091Y-76118260D01*
X153905423Y-76435423D01*
X153670000Y-76787758D01*
X153434577Y-76435423D01*
X152959909Y-76118260D01*
X152541333Y-76035000D01*
X152258667Y-76035000D01*
X151840091Y-76118260D01*
X151365423Y-76435423D01*
X151130000Y-76787758D01*
X150894577Y-76435423D01*
X150419909Y-76118260D01*
X150001333Y-76035000D01*
X149718667Y-76035000D01*
X149300091Y-76118260D01*
X148825423Y-76435423D01*
X148590000Y-76787758D01*
X148354577Y-76435423D01*
X147879909Y-76118260D01*
X147461333Y-76035000D01*
X147178667Y-76035000D01*
X146760091Y-76118260D01*
X146285423Y-76435423D01*
X146050000Y-76787758D01*
X145814577Y-76435423D01*
X145339909Y-76118260D01*
X144921333Y-76035000D01*
X144638667Y-76035000D01*
X144220091Y-76118260D01*
X143745423Y-76435423D01*
X143510000Y-76787758D01*
X143274577Y-76435423D01*
X142799909Y-76118260D01*
X142381333Y-76035000D01*
X142098667Y-76035000D01*
X141680091Y-76118260D01*
X141205423Y-76435423D01*
X141134265Y-76541918D01*
X141110597Y-76484778D01*
X141098157Y-76422235D01*
X141062729Y-76369214D01*
X141038327Y-76310302D01*
X140993236Y-76265211D01*
X140957809Y-76212191D01*
X140904791Y-76176765D01*
X140859699Y-76131673D01*
X140800785Y-76107270D01*
X140747765Y-76071843D01*
X140685224Y-76059403D01*
X140626310Y-76035000D01*
X140562541Y-76035000D01*
X140500000Y-76022560D01*
X138900000Y-76022560D01*
X138837459Y-76035000D01*
X138773690Y-76035000D01*
X138714776Y-76059403D01*
X138652235Y-76071843D01*
X138599215Y-76107270D01*
X138540301Y-76131673D01*
X138495209Y-76176765D01*
X138442191Y-76212191D01*
X138406764Y-76265211D01*
X138361673Y-76310302D01*
X138337271Y-76369214D01*
X138301843Y-76422235D01*
X138289403Y-76484778D01*
X138265000Y-76543691D01*
X138265000Y-76607459D01*
X138252560Y-76670000D01*
X138252560Y-78270000D01*
X138265000Y-78332541D01*
X138265000Y-78396309D01*
X138289403Y-78455222D01*
X138301843Y-78517765D01*
X138337271Y-78570786D01*
X138361673Y-78629698D01*
X138406764Y-78674789D01*
X138442191Y-78727809D01*
X138495209Y-78763235D01*
X138540301Y-78808327D01*
X138599215Y-78832730D01*
X138652235Y-78868157D01*
X138714776Y-78880597D01*
X138773690Y-78905000D01*
X138837459Y-78905000D01*
X138900000Y-78917440D01*
X140500000Y-78917440D01*
X140562541Y-78905000D01*
X140626310Y-78905000D01*
X140685224Y-78880597D01*
X140747765Y-78868157D01*
X140800785Y-78832730D01*
X140859699Y-78808327D01*
X140904791Y-78763235D01*
X140957809Y-78727809D01*
X140993236Y-78674789D01*
X141038327Y-78629698D01*
X141062729Y-78570786D01*
X141098157Y-78517765D01*
X141110597Y-78455222D01*
X141134265Y-78398082D01*
X141205423Y-78504577D01*
X141680091Y-78821740D01*
X142098667Y-78905000D01*
X142381333Y-78905000D01*
X142799909Y-78821740D01*
X143274577Y-78504577D01*
X143510000Y-78152242D01*
X143745423Y-78504577D01*
X144220091Y-78821740D01*
X144638667Y-78905000D01*
X144921333Y-78905000D01*
X145015001Y-78886368D01*
X145015000Y-82621836D01*
X144917191Y-82687191D01*
X144851837Y-82785000D01*
X135991934Y-82785000D01*
X135889999Y-82764724D01*
X135788065Y-82785000D01*
X135486163Y-82845052D01*
X135143807Y-83073807D01*
X135086065Y-83160224D01*
X124204703Y-94041587D01*
X123978127Y-94086656D01*
X123569615Y-94359615D01*
X123296656Y-94768127D01*
X123200805Y-95250000D01*
X123296656Y-95731873D01*
X123425000Y-95923953D01*
X123425000Y-96200462D01*
X123425001Y-96200467D01*
X123425000Y-108385696D01*
X123404724Y-108487630D01*
X123425000Y-108589564D01*
X123485052Y-108891466D01*
X123713807Y-109233823D01*
X123800227Y-109291567D01*
X127033550Y-112524890D01*
X127029979Y-112530235D01*
X127003051Y-112570535D01*
X126922723Y-112974371D01*
X126942999Y-113076305D01*
X126943000Y-126606060D01*
X126922723Y-126707999D01*
X127003051Y-127111835D01*
X127003052Y-127111836D01*
X127231807Y-127454192D01*
X127318224Y-127511934D01*
X127366290Y-127560000D01*
X112470000Y-127560000D01*
X112470000Y-111454821D01*
X120655625Y-111454821D01*
X120655625Y-127305178D01*
X125863125Y-127305178D01*
X125863125Y-111454821D01*
X120655625Y-111454821D01*
X112470000Y-111454821D01*
X112470000Y-106195178D01*
X116316875Y-106195178D01*
X116316875Y-97468365D01*
X120685000Y-97468365D01*
X120685000Y-98111636D01*
X120756656Y-98471873D01*
X121029616Y-98880385D01*
X121438128Y-99153344D01*
X121920000Y-99249195D01*
X122401873Y-99153344D01*
X122810385Y-98880385D01*
X123083344Y-98471872D01*
X123155000Y-98111635D01*
X123155000Y-97468364D01*
X123083344Y-97108127D01*
X122810385Y-96699615D01*
X122401872Y-96426656D01*
X121920000Y-96330805D01*
X121438127Y-96426656D01*
X121029615Y-96699615D01*
X120756656Y-97108128D01*
X120685000Y-97468365D01*
X116316875Y-97468365D01*
X116316875Y-95250000D01*
X118120805Y-95250000D01*
X118216656Y-95731873D01*
X118489615Y-96140385D01*
X118898127Y-96413344D01*
X119258364Y-96485000D01*
X119501636Y-96485000D01*
X119861873Y-96413344D01*
X120270385Y-96140385D01*
X120543344Y-95731873D01*
X120639195Y-95250000D01*
X120543344Y-94768127D01*
X120270385Y-94359615D01*
X119861873Y-94086656D01*
X119501636Y-94015000D01*
X119258364Y-94015000D01*
X118898127Y-94086656D01*
X118489615Y-94359615D01*
X118216656Y-94768127D01*
X118120805Y-95250000D01*
X116316875Y-95250000D01*
X116316875Y-92710000D01*
X120660805Y-92710000D01*
X120756656Y-93191873D01*
X121029615Y-93600385D01*
X121438127Y-93873344D01*
X121798364Y-93945000D01*
X122041636Y-93945000D01*
X122401873Y-93873344D01*
X122810385Y-93600385D01*
X123083344Y-93191873D01*
X123179195Y-92710000D01*
X123083344Y-92228127D01*
X122810385Y-91819615D01*
X122401873Y-91546656D01*
X122041636Y-91475000D01*
X121798364Y-91475000D01*
X121438127Y-91546656D01*
X121029615Y-91819615D01*
X120756656Y-92228127D01*
X120660805Y-92710000D01*
X116316875Y-92710000D01*
X116316875Y-86844821D01*
X112470000Y-86844821D01*
X112470000Y-75640000D01*
X177090000Y-75640000D01*
X177090001Y-77400071D01*
G36*
X129097035Y-125730746D02*
X129208260Y-126289909D01*
X129211662Y-126295001D01*
X129028711Y-126295001D01*
X129012999Y-126279289D01*
X129012999Y-125646709D01*
X129097035Y-125730746D01*
X129097035Y-125730746D01*
G37*
X129097035Y-125730746D02*
X129208260Y-126289909D01*
X129211662Y-126295001D01*
X129028711Y-126295001D01*
X129012999Y-126279289D01*
X129012999Y-125646709D01*
X129097035Y-125730746D01*
G36*
X142805001Y-121049918D02*
X140060225Y-123794695D01*
X139973808Y-123852437D01*
X139916066Y-123938854D01*
X139745052Y-124194794D01*
X139664724Y-124598630D01*
X139684309Y-124697090D01*
X139450000Y-125047758D01*
X139446090Y-125041907D01*
X139444948Y-125036164D01*
X139216192Y-124693808D01*
X139215000Y-124693012D01*
X139215000Y-120018710D01*
X142268711Y-116965000D01*
X142525439Y-116965000D01*
X142805002Y-116849201D01*
X142805001Y-121049918D01*
X142805001Y-121049918D01*
G37*
X142805001Y-121049918D02*
X140060225Y-123794695D01*
X139973808Y-123852437D01*
X139916066Y-123938854D01*
X139745052Y-124194794D01*
X139664724Y-124598630D01*
X139684309Y-124697090D01*
X139450000Y-125047758D01*
X139446090Y-125041907D01*
X139444948Y-125036164D01*
X139216192Y-124693808D01*
X139215000Y-124693012D01*
X139215000Y-120018710D01*
X142268711Y-116965000D01*
X142525439Y-116965000D01*
X142805002Y-116849201D01*
X142805001Y-121049918D01*
G36*
X147785002Y-111948062D02*
X147764725Y-112050001D01*
X147845053Y-112453837D01*
X148009685Y-112700225D01*
X148073809Y-112796194D01*
X148160226Y-112853936D01*
X151335001Y-116028712D01*
X151335000Y-118571050D01*
X151136007Y-118868864D01*
X151034336Y-119380000D01*
X151136007Y-119891136D01*
X151425543Y-120324457D01*
X151858864Y-120613993D01*
X152240978Y-120690000D01*
X152499022Y-120690000D01*
X152881136Y-120613993D01*
X153314457Y-120324457D01*
X153370000Y-120241331D01*
X153425543Y-120324457D01*
X153858864Y-120613993D01*
X154240978Y-120690000D01*
X154499022Y-120690000D01*
X154660002Y-120657979D01*
X154660001Y-125002862D01*
X154454577Y-124695423D01*
X153979909Y-124378260D01*
X153561333Y-124295000D01*
X153278667Y-124295000D01*
X152860091Y-124378260D01*
X152385423Y-124695423D01*
X152150000Y-125047758D01*
X151914577Y-124695423D01*
X151439909Y-124378260D01*
X151021333Y-124295000D01*
X150738667Y-124295000D01*
X150320091Y-124378260D01*
X149845423Y-124695423D01*
X149610000Y-125047758D01*
X149374577Y-124695423D01*
X148899909Y-124378260D01*
X148481333Y-124295000D01*
X148198667Y-124295000D01*
X147780091Y-124378260D01*
X147305423Y-124695423D01*
X147070000Y-125047758D01*
X146834577Y-124695423D01*
X146359909Y-124378260D01*
X145941333Y-124295000D01*
X145658667Y-124295000D01*
X145240091Y-124378260D01*
X144765423Y-124695423D01*
X144530000Y-125047758D01*
X144294577Y-124695423D01*
X143819909Y-124378260D01*
X143401333Y-124295000D01*
X143118667Y-124295000D01*
X142700091Y-124378260D01*
X142225423Y-124695423D01*
X141990000Y-125047758D01*
X141887694Y-124894646D01*
X144499777Y-122282564D01*
X144586194Y-122224822D01*
X144814949Y-121882466D01*
X144875001Y-121580564D01*
X144875001Y-121580563D01*
X144895277Y-121478629D01*
X144875001Y-121376695D01*
X144875001Y-113461935D01*
X144895277Y-113360001D01*
X144842167Y-113093000D01*
X144814949Y-112956164D01*
X144586194Y-112613808D01*
X144499774Y-112556064D01*
X144313937Y-112370227D01*
X144256193Y-112283807D01*
X143913837Y-112055052D01*
X143611935Y-111995000D01*
X143611934Y-111995000D01*
X143510000Y-111974724D01*
X143483768Y-111979942D01*
X147448711Y-108015000D01*
X147451485Y-108015000D01*
X147785001Y-107948659D01*
X147785002Y-111948062D01*
X147785002Y-111948062D01*
G37*
X147785002Y-111948062D02*
X147764725Y-112050001D01*
X147845053Y-112453837D01*
X148009685Y-112700225D01*
X148073809Y-112796194D01*
X148160226Y-112853936D01*
X151335001Y-116028712D01*
X151335000Y-118571050D01*
X151136007Y-118868864D01*
X151034336Y-119380000D01*
X151136007Y-119891136D01*
X151425543Y-120324457D01*
X151858864Y-120613993D01*
X152240978Y-120690000D01*
X152499022Y-120690000D01*
X152881136Y-120613993D01*
X153314457Y-120324457D01*
X153370000Y-120241331D01*
X153425543Y-120324457D01*
X153858864Y-120613993D01*
X154240978Y-120690000D01*
X154499022Y-120690000D01*
X154660002Y-120657979D01*
X154660001Y-125002862D01*
X154454577Y-124695423D01*
X153979909Y-124378260D01*
X153561333Y-124295000D01*
X153278667Y-124295000D01*
X152860091Y-124378260D01*
X152385423Y-124695423D01*
X152150000Y-125047758D01*
X151914577Y-124695423D01*
X151439909Y-124378260D01*
X151021333Y-124295000D01*
X150738667Y-124295000D01*
X150320091Y-124378260D01*
X149845423Y-124695423D01*
X149610000Y-125047758D01*
X149374577Y-124695423D01*
X148899909Y-124378260D01*
X148481333Y-124295000D01*
X148198667Y-124295000D01*
X147780091Y-124378260D01*
X147305423Y-124695423D01*
X147070000Y-125047758D01*
X146834577Y-124695423D01*
X146359909Y-124378260D01*
X145941333Y-124295000D01*
X145658667Y-124295000D01*
X145240091Y-124378260D01*
X144765423Y-124695423D01*
X144530000Y-125047758D01*
X144294577Y-124695423D01*
X143819909Y-124378260D01*
X143401333Y-124295000D01*
X143118667Y-124295000D01*
X142700091Y-124378260D01*
X142225423Y-124695423D01*
X141990000Y-125047758D01*
X141887694Y-124894646D01*
X144499777Y-122282564D01*
X144586194Y-122224822D01*
X144814949Y-121882466D01*
X144875001Y-121580564D01*
X144875001Y-121580563D01*
X144895277Y-121478629D01*
X144875001Y-121376695D01*
X144875001Y-113461935D01*
X144895277Y-113360001D01*
X144842167Y-113093000D01*
X144814949Y-112956164D01*
X144586194Y-112613808D01*
X144499774Y-112556064D01*
X144313937Y-112370227D01*
X144256193Y-112283807D01*
X143913837Y-112055052D01*
X143611935Y-111995000D01*
X143611934Y-111995000D01*
X143510000Y-111974724D01*
X143483768Y-111979942D01*
X147448711Y-108015000D01*
X147451485Y-108015000D01*
X147785001Y-107948659D01*
X147785002Y-111948062D01*
G36*
X132065000Y-117401081D02*
X132065001Y-124496691D01*
X132065000Y-124496696D01*
X132065000Y-124696056D01*
X131830000Y-125047758D01*
X131594577Y-124695423D01*
X131119909Y-124378260D01*
X130701333Y-124295000D01*
X130588710Y-124295000D01*
X130575000Y-124281290D01*
X130575000Y-117430657D01*
X130724320Y-117281337D01*
X130937000Y-116767881D01*
X130937000Y-116273080D01*
X132065000Y-117401081D01*
X132065000Y-117401081D01*
G37*
X132065000Y-117401081D02*
X132065001Y-124496691D01*
X132065000Y-124496696D01*
X132065000Y-124696056D01*
X131830000Y-125047758D01*
X131594577Y-124695423D01*
X131119909Y-124378260D01*
X130701333Y-124295000D01*
X130588710Y-124295000D01*
X130575000Y-124281290D01*
X130575000Y-117430657D01*
X130724320Y-117281337D01*
X130937000Y-116767881D01*
X130937000Y-116273080D01*
X132065000Y-117401081D01*
G36*
X134660000Y-111585276D02*
X134963028Y-111525000D01*
X135788066Y-111525000D01*
X135890000Y-111545276D01*
X135991934Y-111525000D01*
X136771290Y-111525000D01*
X139836064Y-114589774D01*
X139893806Y-114676192D01*
X139980224Y-114733935D01*
X140776289Y-115530000D01*
X137520225Y-118786065D01*
X137433808Y-118843807D01*
X137376066Y-118930224D01*
X137205052Y-119186164D01*
X137124724Y-119590000D01*
X137145001Y-119691939D01*
X137145000Y-124696056D01*
X136910000Y-125047758D01*
X136674577Y-124695423D01*
X136199909Y-124378260D01*
X135781333Y-124295000D01*
X135498667Y-124295000D01*
X135080091Y-124378260D01*
X134605423Y-124695423D01*
X134370000Y-125047758D01*
X134135000Y-124696056D01*
X134135000Y-117074302D01*
X134155276Y-116972369D01*
X134130880Y-116849723D01*
X134074948Y-116568533D01*
X133846193Y-116226177D01*
X133759776Y-116168435D01*
X131421567Y-113830227D01*
X131363823Y-113743807D01*
X131021467Y-113515052D01*
X130719565Y-113455000D01*
X130719564Y-113455000D01*
X130617630Y-113434724D01*
X130559338Y-113446319D01*
X130724320Y-113281337D01*
X130937000Y-112767881D01*
X130937000Y-112212119D01*
X130735629Y-111725966D01*
X130759809Y-111709809D01*
X130883295Y-111525000D01*
X134356972Y-111525000D01*
X134660000Y-111585276D01*
X134660000Y-111585276D01*
G37*
X134660000Y-111585276D02*
X134963028Y-111525000D01*
X135788066Y-111525000D01*
X135890000Y-111545276D01*
X135991934Y-111525000D01*
X136771290Y-111525000D01*
X139836064Y-114589774D01*
X139893806Y-114676192D01*
X139980224Y-114733935D01*
X140776289Y-115530000D01*
X137520225Y-118786065D01*
X137433808Y-118843807D01*
X137376066Y-118930224D01*
X137205052Y-119186164D01*
X137124724Y-119590000D01*
X137145001Y-119691939D01*
X137145000Y-124696056D01*
X136910000Y-125047758D01*
X136674577Y-124695423D01*
X136199909Y-124378260D01*
X135781333Y-124295000D01*
X135498667Y-124295000D01*
X135080091Y-124378260D01*
X134605423Y-124695423D01*
X134370000Y-125047758D01*
X134135000Y-124696056D01*
X134135000Y-117074302D01*
X134155276Y-116972369D01*
X134130880Y-116849723D01*
X134074948Y-116568533D01*
X133846193Y-116226177D01*
X133759776Y-116168435D01*
X131421567Y-113830227D01*
X131363823Y-113743807D01*
X131021467Y-113515052D01*
X130719565Y-113455000D01*
X130719564Y-113455000D01*
X130617630Y-113434724D01*
X130559338Y-113446319D01*
X130724320Y-113281337D01*
X130937000Y-112767881D01*
X130937000Y-112212119D01*
X130735629Y-111725966D01*
X130759809Y-111709809D01*
X130883295Y-111525000D01*
X134356972Y-111525000D01*
X134660000Y-111585276D01*
G36*
X163425543Y-120324457D02*
X163858864Y-120613993D01*
X164240978Y-120690000D01*
X164499022Y-120690000D01*
X164881136Y-120613993D01*
X165174032Y-120418286D01*
X165237191Y-120512809D01*
X165447235Y-120653157D01*
X165695000Y-120702440D01*
X166228730Y-120702440D01*
X169857355Y-124331065D01*
X169620091Y-124378260D01*
X169145423Y-124695423D01*
X168910000Y-125047758D01*
X168674577Y-124695423D01*
X168199909Y-124378260D01*
X167781333Y-124295000D01*
X167498667Y-124295000D01*
X167080091Y-124378260D01*
X166605423Y-124695423D01*
X166370000Y-125047758D01*
X166134577Y-124695423D01*
X165659909Y-124378260D01*
X165241333Y-124295000D01*
X164958667Y-124295000D01*
X164540091Y-124378260D01*
X164065423Y-124695423D01*
X163830000Y-125047758D01*
X163594577Y-124695423D01*
X163119909Y-124378260D01*
X162701333Y-124295000D01*
X162418667Y-124295000D01*
X162000091Y-124378260D01*
X161525423Y-124695423D01*
X161290000Y-125047758D01*
X161054577Y-124695423D01*
X160579909Y-124378260D01*
X160161333Y-124295000D01*
X159878667Y-124295000D01*
X159460091Y-124378260D01*
X158985423Y-124695423D01*
X158750000Y-125047758D01*
X158514577Y-124695423D01*
X158039909Y-124378260D01*
X157621333Y-124295000D01*
X157338667Y-124295000D01*
X156920091Y-124378260D01*
X156730001Y-124505274D01*
X156730001Y-120644056D01*
X156881136Y-120613993D01*
X157314457Y-120324457D01*
X157370000Y-120241331D01*
X157425543Y-120324457D01*
X157858864Y-120613993D01*
X158240978Y-120690000D01*
X158499022Y-120690000D01*
X158881136Y-120613993D01*
X159314457Y-120324457D01*
X159370000Y-120241331D01*
X159425543Y-120324457D01*
X159858864Y-120613993D01*
X160240978Y-120690000D01*
X160499022Y-120690000D01*
X160881136Y-120613993D01*
X161314457Y-120324457D01*
X161370000Y-120241331D01*
X161425543Y-120324457D01*
X161858864Y-120613993D01*
X162240978Y-120690000D01*
X162499022Y-120690000D01*
X162881136Y-120613993D01*
X163314457Y-120324457D01*
X163370000Y-120241331D01*
X163425543Y-120324457D01*
X163425543Y-120324457D01*
G37*
X163425543Y-120324457D02*
X163858864Y-120613993D01*
X164240978Y-120690000D01*
X164499022Y-120690000D01*
X164881136Y-120613993D01*
X165174032Y-120418286D01*
X165237191Y-120512809D01*
X165447235Y-120653157D01*
X165695000Y-120702440D01*
X166228730Y-120702440D01*
X169857355Y-124331065D01*
X169620091Y-124378260D01*
X169145423Y-124695423D01*
X168910000Y-125047758D01*
X168674577Y-124695423D01*
X168199909Y-124378260D01*
X167781333Y-124295000D01*
X167498667Y-124295000D01*
X167080091Y-124378260D01*
X166605423Y-124695423D01*
X166370000Y-125047758D01*
X166134577Y-124695423D01*
X165659909Y-124378260D01*
X165241333Y-124295000D01*
X164958667Y-124295000D01*
X164540091Y-124378260D01*
X164065423Y-124695423D01*
X163830000Y-125047758D01*
X163594577Y-124695423D01*
X163119909Y-124378260D01*
X162701333Y-124295000D01*
X162418667Y-124295000D01*
X162000091Y-124378260D01*
X161525423Y-124695423D01*
X161290000Y-125047758D01*
X161054577Y-124695423D01*
X160579909Y-124378260D01*
X160161333Y-124295000D01*
X159878667Y-124295000D01*
X159460091Y-124378260D01*
X158985423Y-124695423D01*
X158750000Y-125047758D01*
X158514577Y-124695423D01*
X158039909Y-124378260D01*
X157621333Y-124295000D01*
X157338667Y-124295000D01*
X156920091Y-124378260D01*
X156730001Y-124505274D01*
X156730001Y-120644056D01*
X156881136Y-120613993D01*
X157314457Y-120324457D01*
X157370000Y-120241331D01*
X157425543Y-120324457D01*
X157858864Y-120613993D01*
X158240978Y-120690000D01*
X158499022Y-120690000D01*
X158881136Y-120613993D01*
X159314457Y-120324457D01*
X159370000Y-120241331D01*
X159425543Y-120324457D01*
X159858864Y-120613993D01*
X160240978Y-120690000D01*
X160499022Y-120690000D01*
X160881136Y-120613993D01*
X161314457Y-120324457D01*
X161370000Y-120241331D01*
X161425543Y-120324457D01*
X161858864Y-120613993D01*
X162240978Y-120690000D01*
X162499022Y-120690000D01*
X162881136Y-120613993D01*
X163314457Y-120324457D01*
X163370000Y-120241331D01*
X163425543Y-120324457D01*
G36*
X161351288Y-109155000D02*
X161158515Y-109155000D01*
X160769109Y-109232458D01*
X160436051Y-109455000D01*
X158332975Y-109455000D01*
X158236217Y-109358242D01*
X157745548Y-109155000D01*
X157214452Y-109155000D01*
X156723783Y-109358242D01*
X156348242Y-109733783D01*
X156145000Y-110224452D01*
X156145000Y-110361289D01*
X152370000Y-114136290D01*
X149855001Y-111621291D01*
X149855001Y-109041670D01*
X149864999Y-109091933D01*
X149925051Y-109393835D01*
X150153806Y-109736192D01*
X150240226Y-109793936D01*
X151064311Y-110618022D01*
X151142458Y-111010891D01*
X151437519Y-111452481D01*
X151879109Y-111747542D01*
X152268515Y-111825000D01*
X152531485Y-111825000D01*
X152920891Y-111747542D01*
X153362481Y-111452481D01*
X153657542Y-111010891D01*
X153761154Y-110490000D01*
X153657542Y-109969109D01*
X153362481Y-109527519D01*
X152920891Y-109232458D01*
X152531485Y-109155000D01*
X152528711Y-109155000D01*
X151934999Y-108561289D01*
X151934999Y-107932384D01*
X152134452Y-108015000D01*
X152665548Y-108015000D01*
X153156217Y-107811758D01*
X153252975Y-107715000D01*
X159911288Y-107715000D01*
X161351288Y-109155000D01*
X161351288Y-109155000D01*
G37*
X161351288Y-109155000D02*
X161158515Y-109155000D01*
X160769109Y-109232458D01*
X160436051Y-109455000D01*
X158332975Y-109455000D01*
X158236217Y-109358242D01*
X157745548Y-109155000D01*
X157214452Y-109155000D01*
X156723783Y-109358242D01*
X156348242Y-109733783D01*
X156145000Y-110224452D01*
X156145000Y-110361289D01*
X152370000Y-114136290D01*
X149855001Y-111621291D01*
X149855001Y-109041670D01*
X149864999Y-109091933D01*
X149925051Y-109393835D01*
X150153806Y-109736192D01*
X150240226Y-109793936D01*
X151064311Y-110618022D01*
X151142458Y-111010891D01*
X151437519Y-111452481D01*
X151879109Y-111747542D01*
X152268515Y-111825000D01*
X152531485Y-111825000D01*
X152920891Y-111747542D01*
X153362481Y-111452481D01*
X153657542Y-111010891D01*
X153761154Y-110490000D01*
X153657542Y-109969109D01*
X153362481Y-109527519D01*
X152920891Y-109232458D01*
X152531485Y-109155000D01*
X152528711Y-109155000D01*
X151934999Y-108561289D01*
X151934999Y-107932384D01*
X152134452Y-108015000D01*
X152665548Y-108015000D01*
X153156217Y-107811758D01*
X153252975Y-107715000D01*
X159911288Y-107715000D01*
X161351288Y-109155000D01*
G36*
X149865000Y-102668711D02*
X149864999Y-105908330D01*
X149846204Y-105813836D01*
X149794949Y-105556162D01*
X149566194Y-105213806D01*
X149479777Y-105156064D01*
X148843938Y-104520226D01*
X148786194Y-104433806D01*
X148443838Y-104205051D01*
X148141936Y-104144999D01*
X148141935Y-104144999D01*
X148040001Y-104124723D01*
X147938067Y-104144999D01*
X146701933Y-104144999D01*
X146599999Y-104124723D01*
X146498064Y-104144999D01*
X146196162Y-104205051D01*
X145853806Y-104433806D01*
X145796064Y-104520223D01*
X139980224Y-110336064D01*
X139893807Y-110393806D01*
X139836065Y-110480223D01*
X139665051Y-110736163D01*
X139584723Y-111139999D01*
X139605000Y-111241938D01*
X139605000Y-111431290D01*
X138008710Y-109835000D01*
X145208711Y-102635000D01*
X145886056Y-102635000D01*
X146360091Y-102951740D01*
X146778667Y-103035000D01*
X147861333Y-103035000D01*
X148279909Y-102951740D01*
X148754577Y-102634577D01*
X149071740Y-102159909D01*
X149118935Y-101922645D01*
X149865000Y-102668711D01*
X149865000Y-102668711D01*
G37*
X149865000Y-102668711D02*
X149864999Y-105908330D01*
X149846204Y-105813836D01*
X149794949Y-105556162D01*
X149566194Y-105213806D01*
X149479777Y-105156064D01*
X148843938Y-104520226D01*
X148786194Y-104433806D01*
X148443838Y-104205051D01*
X148141936Y-104144999D01*
X148141935Y-104144999D01*
X148040001Y-104124723D01*
X147938067Y-104144999D01*
X146701933Y-104144999D01*
X146599999Y-104124723D01*
X146498064Y-104144999D01*
X146196162Y-104205051D01*
X145853806Y-104433806D01*
X145796064Y-104520223D01*
X139980224Y-110336064D01*
X139893807Y-110393806D01*
X139836065Y-110480223D01*
X139665051Y-110736163D01*
X139584723Y-111139999D01*
X139605000Y-111241938D01*
X139605000Y-111431290D01*
X138008710Y-109835000D01*
X145208711Y-102635000D01*
X145886056Y-102635000D01*
X146360091Y-102951740D01*
X146778667Y-103035000D01*
X147861333Y-103035000D01*
X148279909Y-102951740D01*
X148754577Y-102634577D01*
X149071740Y-102159909D01*
X149118935Y-101922645D01*
X149865000Y-102668711D01*
G36*
X173233783Y-106541758D02*
X173503014Y-106653277D01*
X169201291Y-110955001D01*
X167622384Y-110955001D01*
X167705000Y-110755548D01*
X167705000Y-110618710D01*
X171878711Y-106445000D01*
X173137025Y-106445000D01*
X173233783Y-106541758D01*
X173233783Y-106541758D01*
G37*
X173233783Y-106541758D02*
X173503014Y-106653277D01*
X169201291Y-110955001D01*
X167622384Y-110955001D01*
X167705000Y-110755548D01*
X167705000Y-110618710D01*
X171878711Y-106445000D01*
X173137025Y-106445000D01*
X173233783Y-106541758D01*
G36*
X148825000Y-78503944D02*
X148825000Y-78703304D01*
X148825001Y-78703309D01*
X148825000Y-91738066D01*
X148804724Y-91840000D01*
X148850089Y-92068065D01*
X148885052Y-92243836D01*
X149113807Y-92586193D01*
X149200227Y-92643937D01*
X153077035Y-96520746D01*
X153188260Y-97079909D01*
X153505423Y-97554577D01*
X153857758Y-97790000D01*
X153505423Y-98025423D01*
X153188260Y-98500091D01*
X153076887Y-99060000D01*
X153188260Y-99619909D01*
X153505423Y-100094577D01*
X153857758Y-100330000D01*
X153505423Y-100565423D01*
X153188260Y-101040091D01*
X153187063Y-101046108D01*
X150356319Y-98215364D01*
X150375286Y-98120010D01*
X150294958Y-97716173D01*
X150123944Y-97460233D01*
X150066203Y-97373817D01*
X149979786Y-97316075D01*
X149182965Y-96519254D01*
X149071740Y-95960091D01*
X148754577Y-95485423D01*
X148648082Y-95414265D01*
X148705222Y-95390597D01*
X148767765Y-95378157D01*
X148820786Y-95342729D01*
X148879698Y-95318327D01*
X148924789Y-95273236D01*
X148977809Y-95237809D01*
X149013235Y-95184791D01*
X149058327Y-95139699D01*
X149082730Y-95080785D01*
X149118157Y-95027765D01*
X149130597Y-94965224D01*
X149155000Y-94906310D01*
X149155000Y-94842541D01*
X149167440Y-94780000D01*
X149167440Y-93180000D01*
X149155000Y-93117459D01*
X149155000Y-93053690D01*
X149130597Y-92994776D01*
X149118157Y-92932235D01*
X149082730Y-92879215D01*
X149058327Y-92820301D01*
X149013235Y-92775209D01*
X148977809Y-92722191D01*
X148924789Y-92686764D01*
X148879698Y-92641673D01*
X148820786Y-92617271D01*
X148767765Y-92581843D01*
X148705222Y-92569403D01*
X148646309Y-92545000D01*
X148582541Y-92545000D01*
X148520000Y-92532560D01*
X146120000Y-92532560D01*
X146057459Y-92545000D01*
X145993691Y-92545000D01*
X145934778Y-92569403D01*
X145872235Y-92581843D01*
X145819214Y-92617271D01*
X145760302Y-92641673D01*
X145715211Y-92686764D01*
X145662191Y-92722191D01*
X145626765Y-92775209D01*
X145581673Y-92820301D01*
X145557270Y-92879215D01*
X145521843Y-92932235D01*
X145509403Y-92994776D01*
X145485000Y-93053690D01*
X145485000Y-93117459D01*
X145472560Y-93180000D01*
X145472560Y-94780000D01*
X145485000Y-94842541D01*
X145485000Y-94906310D01*
X145509403Y-94965224D01*
X145521843Y-95027765D01*
X145557270Y-95080785D01*
X145581673Y-95139699D01*
X145626765Y-95184791D01*
X145662191Y-95237809D01*
X145715211Y-95273236D01*
X145760302Y-95318327D01*
X145819214Y-95342729D01*
X145872235Y-95378157D01*
X145934778Y-95390597D01*
X145991918Y-95414265D01*
X145885423Y-95485423D01*
X145568260Y-95960091D01*
X145456887Y-96520000D01*
X145568260Y-97079909D01*
X145885423Y-97554577D01*
X146237758Y-97790000D01*
X145886056Y-98025000D01*
X140552975Y-98025000D01*
X140456217Y-97928242D01*
X139965548Y-97725000D01*
X139828711Y-97725000D01*
X137963937Y-95860227D01*
X137906193Y-95773807D01*
X137563837Y-95545052D01*
X137261935Y-95485000D01*
X137261934Y-95485000D01*
X137160000Y-95464724D01*
X137058066Y-95485000D01*
X135614396Y-95485000D01*
X135432862Y-95303466D01*
X134905439Y-95085000D01*
X134334561Y-95085000D01*
X133807138Y-95303466D01*
X133403466Y-95707138D01*
X133185000Y-96234561D01*
X133185000Y-96805439D01*
X133403466Y-97332862D01*
X133807138Y-97736534D01*
X133887932Y-97770000D01*
X133807138Y-97803466D01*
X133403466Y-98207138D01*
X133185000Y-98734561D01*
X133185000Y-99305439D01*
X133403466Y-99832862D01*
X133585001Y-100014397D01*
X133585000Y-109455000D01*
X130883295Y-109455000D01*
X130759809Y-109270191D01*
X130549765Y-109129843D01*
X130302000Y-109080560D01*
X128778000Y-109080560D01*
X128530235Y-109129843D01*
X128320191Y-109270191D01*
X128179843Y-109480235D01*
X128130560Y-109728000D01*
X128130560Y-110694479D01*
X125495000Y-108058920D01*
X125495000Y-95923953D01*
X125623344Y-95731873D01*
X125668413Y-95505297D01*
X126061032Y-95112678D01*
X127048125Y-95112678D01*
X127048125Y-97927321D01*
X129630625Y-97927321D01*
X129630625Y-95112678D01*
X127048125Y-95112678D01*
X126061032Y-95112678D01*
X136318711Y-84855000D01*
X144851837Y-84855000D01*
X144917191Y-84952809D01*
X145011714Y-85015968D01*
X144816007Y-85308864D01*
X144746130Y-85660159D01*
X139040225Y-91366065D01*
X138953808Y-91423807D01*
X138896066Y-91510224D01*
X138725052Y-91766164D01*
X138644724Y-92170000D01*
X138665001Y-92271939D01*
X138665000Y-93126051D01*
X138442458Y-93459109D01*
X138338846Y-93980000D01*
X138442458Y-94500891D01*
X138737519Y-94942481D01*
X139179109Y-95237542D01*
X139568515Y-95315000D01*
X139831485Y-95315000D01*
X140220891Y-95237542D01*
X140662481Y-94942481D01*
X140957542Y-94500891D01*
X141061154Y-93980000D01*
X140957542Y-93459109D01*
X140735000Y-93126051D01*
X140735000Y-92598710D01*
X146209841Y-87123870D01*
X146561136Y-87053993D01*
X146994457Y-86764457D01*
X147283993Y-86331136D01*
X147385664Y-85820000D01*
X147283993Y-85308864D01*
X147088286Y-85015968D01*
X147182809Y-84952809D01*
X147323157Y-84742765D01*
X147372440Y-84495000D01*
X147372440Y-83145000D01*
X147323157Y-82897235D01*
X147182809Y-82687191D01*
X147085000Y-82621837D01*
X147085000Y-79168710D01*
X147348710Y-78905000D01*
X147461333Y-78905000D01*
X147879909Y-78821740D01*
X148354577Y-78504577D01*
X148590000Y-78152242D01*
X148825000Y-78503944D01*
X148825000Y-78503944D01*
G37*
X148825000Y-78503944D02*
X148825000Y-78703304D01*
X148825001Y-78703309D01*
X148825000Y-91738066D01*
X148804724Y-91840000D01*
X148850089Y-92068065D01*
X148885052Y-92243836D01*
X149113807Y-92586193D01*
X149200227Y-92643937D01*
X153077035Y-96520746D01*
X153188260Y-97079909D01*
X153505423Y-97554577D01*
X153857758Y-97790000D01*
X153505423Y-98025423D01*
X153188260Y-98500091D01*
X153076887Y-99060000D01*
X153188260Y-99619909D01*
X153505423Y-100094577D01*
X153857758Y-100330000D01*
X153505423Y-100565423D01*
X153188260Y-101040091D01*
X153187063Y-101046108D01*
X150356319Y-98215364D01*
X150375286Y-98120010D01*
X150294958Y-97716173D01*
X150123944Y-97460233D01*
X150066203Y-97373817D01*
X149979786Y-97316075D01*
X149182965Y-96519254D01*
X149071740Y-95960091D01*
X148754577Y-95485423D01*
X148648082Y-95414265D01*
X148705222Y-95390597D01*
X148767765Y-95378157D01*
X148820786Y-95342729D01*
X148879698Y-95318327D01*
X148924789Y-95273236D01*
X148977809Y-95237809D01*
X149013235Y-95184791D01*
X149058327Y-95139699D01*
X149082730Y-95080785D01*
X149118157Y-95027765D01*
X149130597Y-94965224D01*
X149155000Y-94906310D01*
X149155000Y-94842541D01*
X149167440Y-94780000D01*
X149167440Y-93180000D01*
X149155000Y-93117459D01*
X149155000Y-93053690D01*
X149130597Y-92994776D01*
X149118157Y-92932235D01*
X149082730Y-92879215D01*
X149058327Y-92820301D01*
X149013235Y-92775209D01*
X148977809Y-92722191D01*
X148924789Y-92686764D01*
X148879698Y-92641673D01*
X148820786Y-92617271D01*
X148767765Y-92581843D01*
X148705222Y-92569403D01*
X148646309Y-92545000D01*
X148582541Y-92545000D01*
X148520000Y-92532560D01*
X146120000Y-92532560D01*
X146057459Y-92545000D01*
X145993691Y-92545000D01*
X145934778Y-92569403D01*
X145872235Y-92581843D01*
X145819214Y-92617271D01*
X145760302Y-92641673D01*
X145715211Y-92686764D01*
X145662191Y-92722191D01*
X145626765Y-92775209D01*
X145581673Y-92820301D01*
X145557270Y-92879215D01*
X145521843Y-92932235D01*
X145509403Y-92994776D01*
X145485000Y-93053690D01*
X145485000Y-93117459D01*
X145472560Y-93180000D01*
X145472560Y-94780000D01*
X145485000Y-94842541D01*
X145485000Y-94906310D01*
X145509403Y-94965224D01*
X145521843Y-95027765D01*
X145557270Y-95080785D01*
X145581673Y-95139699D01*
X145626765Y-95184791D01*
X145662191Y-95237809D01*
X145715211Y-95273236D01*
X145760302Y-95318327D01*
X145819214Y-95342729D01*
X145872235Y-95378157D01*
X145934778Y-95390597D01*
X145991918Y-95414265D01*
X145885423Y-95485423D01*
X145568260Y-95960091D01*
X145456887Y-96520000D01*
X145568260Y-97079909D01*
X145885423Y-97554577D01*
X146237758Y-97790000D01*
X145886056Y-98025000D01*
X140552975Y-98025000D01*
X140456217Y-97928242D01*
X139965548Y-97725000D01*
X139828711Y-97725000D01*
X137963937Y-95860227D01*
X137906193Y-95773807D01*
X137563837Y-95545052D01*
X137261935Y-95485000D01*
X137261934Y-95485000D01*
X137160000Y-95464724D01*
X137058066Y-95485000D01*
X135614396Y-95485000D01*
X135432862Y-95303466D01*
X134905439Y-95085000D01*
X134334561Y-95085000D01*
X133807138Y-95303466D01*
X133403466Y-95707138D01*
X133185000Y-96234561D01*
X133185000Y-96805439D01*
X133403466Y-97332862D01*
X133807138Y-97736534D01*
X133887932Y-97770000D01*
X133807138Y-97803466D01*
X133403466Y-98207138D01*
X133185000Y-98734561D01*
X133185000Y-99305439D01*
X133403466Y-99832862D01*
X133585001Y-100014397D01*
X133585000Y-109455000D01*
X130883295Y-109455000D01*
X130759809Y-109270191D01*
X130549765Y-109129843D01*
X130302000Y-109080560D01*
X128778000Y-109080560D01*
X128530235Y-109129843D01*
X128320191Y-109270191D01*
X128179843Y-109480235D01*
X128130560Y-109728000D01*
X128130560Y-110694479D01*
X125495000Y-108058920D01*
X125495000Y-95923953D01*
X125623344Y-95731873D01*
X125668413Y-95505297D01*
X126061032Y-95112678D01*
X127048125Y-95112678D01*
X127048125Y-97927321D01*
X129630625Y-97927321D01*
X129630625Y-95112678D01*
X127048125Y-95112678D01*
X126061032Y-95112678D01*
X136318711Y-84855000D01*
X144851837Y-84855000D01*
X144917191Y-84952809D01*
X145011714Y-85015968D01*
X144816007Y-85308864D01*
X144746130Y-85660159D01*
X139040225Y-91366065D01*
X138953808Y-91423807D01*
X138896066Y-91510224D01*
X138725052Y-91766164D01*
X138644724Y-92170000D01*
X138665001Y-92271939D01*
X138665000Y-93126051D01*
X138442458Y-93459109D01*
X138338846Y-93980000D01*
X138442458Y-94500891D01*
X138737519Y-94942481D01*
X139179109Y-95237542D01*
X139568515Y-95315000D01*
X139831485Y-95315000D01*
X140220891Y-95237542D01*
X140662481Y-94942481D01*
X140957542Y-94500891D01*
X141061154Y-93980000D01*
X140957542Y-93459109D01*
X140735000Y-93126051D01*
X140735000Y-92598710D01*
X146209841Y-87123870D01*
X146561136Y-87053993D01*
X146994457Y-86764457D01*
X147283993Y-86331136D01*
X147385664Y-85820000D01*
X147283993Y-85308864D01*
X147088286Y-85015968D01*
X147182809Y-84952809D01*
X147323157Y-84742765D01*
X147372440Y-84495000D01*
X147372440Y-83145000D01*
X147323157Y-82897235D01*
X147182809Y-82687191D01*
X147085000Y-82621837D01*
X147085000Y-79168710D01*
X147348710Y-78905000D01*
X147461333Y-78905000D01*
X147879909Y-78821740D01*
X148354577Y-78504577D01*
X148590000Y-78152242D01*
X148825000Y-78503944D01*
G36*
X138365000Y-99188711D02*
X138365000Y-99325548D01*
X138568242Y-99816217D01*
X138943783Y-100191758D01*
X139434452Y-100395000D01*
X139965548Y-100395000D01*
X140456217Y-100191758D01*
X140552975Y-100095000D01*
X145886056Y-100095000D01*
X146237758Y-100330000D01*
X145886056Y-100565000D01*
X144881934Y-100565000D01*
X144780000Y-100544724D01*
X144678065Y-100565000D01*
X144376163Y-100625052D01*
X144033807Y-100853807D01*
X143976065Y-100940224D01*
X135655000Y-109261290D01*
X135655000Y-100014396D01*
X135836534Y-99832862D01*
X136055000Y-99305439D01*
X136055000Y-98734561D01*
X135836534Y-98207138D01*
X135432862Y-97803466D01*
X135352068Y-97770000D01*
X135432862Y-97736534D01*
X135614396Y-97555000D01*
X136731290Y-97555000D01*
X138365000Y-99188711D01*
X138365000Y-99188711D01*
G37*
X138365000Y-99188711D02*
X138365000Y-99325548D01*
X138568242Y-99816217D01*
X138943783Y-100191758D01*
X139434452Y-100395000D01*
X139965548Y-100395000D01*
X140456217Y-100191758D01*
X140552975Y-100095000D01*
X145886056Y-100095000D01*
X146237758Y-100330000D01*
X145886056Y-100565000D01*
X144881934Y-100565000D01*
X144780000Y-100544724D01*
X144678065Y-100565000D01*
X144376163Y-100625052D01*
X144033807Y-100853807D01*
X143976065Y-100940224D01*
X135655000Y-109261290D01*
X135655000Y-100014396D01*
X135836534Y-99832862D01*
X136055000Y-99305439D01*
X136055000Y-98734561D01*
X135836534Y-98207138D01*
X135432862Y-97803466D01*
X135352068Y-97770000D01*
X135432862Y-97736534D01*
X135614396Y-97555000D01*
X136731290Y-97555000D01*
X138365000Y-99188711D01*
G36*
X170151290Y-100165000D02*
X169894561Y-100165000D01*
X169367138Y-100383466D01*
X168963466Y-100787138D01*
X168745000Y-101314561D01*
X168745000Y-101571290D01*
X168250225Y-102066065D01*
X168163808Y-102123807D01*
X168106066Y-102210224D01*
X167935052Y-102466164D01*
X167854724Y-102870000D01*
X167875001Y-102971939D01*
X167875000Y-104556051D01*
X167652458Y-104889109D01*
X167548846Y-105410000D01*
X167652458Y-105930891D01*
X167947519Y-106372481D01*
X168389109Y-106667542D01*
X168672398Y-106723892D01*
X166370000Y-109026289D01*
X159883947Y-102540237D01*
X159826203Y-102453817D01*
X159483847Y-102225062D01*
X159181945Y-102165010D01*
X159181944Y-102165010D01*
X159080010Y-102144734D01*
X158978076Y-102165010D01*
X156688332Y-102165010D01*
X156691740Y-102159909D01*
X156803113Y-101600000D01*
X156691740Y-101040091D01*
X156374577Y-100565423D01*
X156022242Y-100330000D01*
X156373944Y-100095000D01*
X170221290Y-100095000D01*
X170151290Y-100165000D01*
X170151290Y-100165000D01*
G37*
X170151290Y-100165000D02*
X169894561Y-100165000D01*
X169367138Y-100383466D01*
X168963466Y-100787138D01*
X168745000Y-101314561D01*
X168745000Y-101571290D01*
X168250225Y-102066065D01*
X168163808Y-102123807D01*
X168106066Y-102210224D01*
X167935052Y-102466164D01*
X167854724Y-102870000D01*
X167875001Y-102971939D01*
X167875000Y-104556051D01*
X167652458Y-104889109D01*
X167548846Y-105410000D01*
X167652458Y-105930891D01*
X167947519Y-106372481D01*
X168389109Y-106667542D01*
X168672398Y-106723892D01*
X166370000Y-109026289D01*
X159883947Y-102540237D01*
X159826203Y-102453817D01*
X159483847Y-102225062D01*
X159181945Y-102165010D01*
X159181944Y-102165010D01*
X159080010Y-102144734D01*
X158978076Y-102165010D01*
X156688332Y-102165010D01*
X156691740Y-102159909D01*
X156803113Y-101600000D01*
X156691740Y-101040091D01*
X156374577Y-100565423D01*
X156022242Y-100330000D01*
X156373944Y-100095000D01*
X170221290Y-100095000D01*
X170151290Y-100165000D01*
G36*
X149864999Y-108888065D02*
X149855001Y-108938328D01*
X149855001Y-106061933D01*
X149864999Y-106011668D01*
X149864999Y-108888065D01*
X149864999Y-108888065D01*
G37*
X149864999Y-108888065D02*
X149855001Y-108938328D01*
X149855001Y-106061933D01*
X149864999Y-106011668D01*
X149864999Y-108888065D01*
G36*
X153073320Y-103859786D02*
X153131062Y-103946203D01*
X153398236Y-104124723D01*
X153473418Y-104174958D01*
X153877255Y-104255286D01*
X153979189Y-104235010D01*
X158651300Y-104235010D01*
X160061290Y-105645000D01*
X153252975Y-105645000D01*
X153156217Y-105548242D01*
X152665548Y-105345000D01*
X152134452Y-105345000D01*
X151934999Y-105427616D01*
X151934999Y-102721465D01*
X153073320Y-103859786D01*
X153073320Y-103859786D01*
G37*
X153073320Y-103859786D02*
X153131062Y-103946203D01*
X153398236Y-104124723D01*
X153473418Y-104174958D01*
X153877255Y-104255286D01*
X153979189Y-104235010D01*
X158651300Y-104235010D01*
X160061290Y-105645000D01*
X153252975Y-105645000D01*
X153156217Y-105548242D01*
X152665548Y-105345000D01*
X152134452Y-105345000D01*
X151934999Y-105427616D01*
X151934999Y-102721465D01*
X153073320Y-103859786D01*
G36*
X171463466Y-102412862D02*
X171867138Y-102816534D01*
X172394561Y-103035000D01*
X172651289Y-103035000D01*
X172955001Y-103338712D01*
X172955000Y-104375000D01*
X171551934Y-104375000D01*
X171450000Y-104354724D01*
X171348065Y-104375000D01*
X171046163Y-104435052D01*
X170703807Y-104663807D01*
X170646065Y-104750224D01*
X170223892Y-105172397D01*
X170167542Y-104889109D01*
X169945000Y-104556051D01*
X169945000Y-103298710D01*
X170208710Y-103035000D01*
X170465439Y-103035000D01*
X170992862Y-102816534D01*
X171396534Y-102412862D01*
X171430000Y-102332068D01*
X171463466Y-102412862D01*
X171463466Y-102412862D01*
G37*
X171463466Y-102412862D02*
X171867138Y-102816534D01*
X172394561Y-103035000D01*
X172651289Y-103035000D01*
X172955001Y-103338712D01*
X172955000Y-104375000D01*
X171551934Y-104375000D01*
X171450000Y-104354724D01*
X171348065Y-104375000D01*
X171046163Y-104435052D01*
X170703807Y-104663807D01*
X170646065Y-104750224D01*
X170223892Y-105172397D01*
X170167542Y-104889109D01*
X169945000Y-104556051D01*
X169945000Y-103298710D01*
X170208710Y-103035000D01*
X170465439Y-103035000D01*
X170992862Y-102816534D01*
X171396534Y-102412862D01*
X171430000Y-102332068D01*
X171463466Y-102412862D01*
G36*
X170233466Y-97332862D02*
X170637138Y-97736534D01*
X171164561Y-97955000D01*
X171735439Y-97955000D01*
X172262862Y-97736534D01*
X172298528Y-97700868D01*
X172625819Y-98028159D01*
X172609937Y-98025000D01*
X172508002Y-98004724D01*
X172406068Y-98025000D01*
X156373944Y-98025000D01*
X156022242Y-97790000D01*
X156373944Y-97555000D01*
X167955604Y-97555000D01*
X168137138Y-97736534D01*
X168664561Y-97955000D01*
X169235439Y-97955000D01*
X169762862Y-97736534D01*
X170166534Y-97332862D01*
X170200000Y-97252068D01*
X170233466Y-97332862D01*
X170233466Y-97332862D01*
G37*
X170233466Y-97332862D02*
X170637138Y-97736534D01*
X171164561Y-97955000D01*
X171735439Y-97955000D01*
X172262862Y-97736534D01*
X172298528Y-97700868D01*
X172625819Y-98028159D01*
X172609937Y-98025000D01*
X172508002Y-98004724D01*
X172406068Y-98025000D01*
X156373944Y-98025000D01*
X156022242Y-97790000D01*
X156373944Y-97555000D01*
X167955604Y-97555000D01*
X168137138Y-97736534D01*
X168664561Y-97955000D01*
X169235439Y-97955000D01*
X169762862Y-97736534D01*
X170166534Y-97332862D01*
X170200000Y-97252068D01*
X170233466Y-97332862D01*
M02*
