G04 #@! TF.GenerationSoftware,KiCad,Pcbnew,(5.0.0)*
G04 #@! TF.CreationDate,2018-12-01T13:55:55+01:00*
G04 #@! TF.ProjectId,GazSensor-Rodier&Xu,47617A53656E736F722D526F64696572,1.0*
G04 #@! TF.SameCoordinates,Original*
G04 #@! TF.FileFunction,Soldermask,Top*
G04 #@! TF.FilePolarity,Negative*
%FSLAX46Y46*%
G04 Gerber Fmt 4.6, Leading zero omitted, Abs format (unit mm)*
G04 Created by KiCad (PCBNEW (5.0.0)) date 12/01/18 13:55:55*
%MOMM*%
%LPD*%
G01*
G04 APERTURE LIST*
%ADD10O,2.000000X2.000000*%
%ADD11R,2.000000X2.000000*%
%ADD12C,2.000000*%
%ADD13O,2.800000X2.000000*%
%ADD14R,2.800000X2.000000*%
%ADD15C,1.800000*%
%ADD16O,1.800000X1.800000*%
%ADD17R,1.924000X1.924000*%
%ADD18C,1.924000*%
%ADD19R,1.750000X1.750000*%
%ADD20O,1.750000X1.750000*%
G04 APERTURE END LIST*
D10*
G04 #@! TO.C,A1*
X130560000Y-125730000D03*
X133100000Y-125730000D03*
D11*
X139700000Y-77470000D03*
D10*
X170180000Y-125730000D03*
X142240000Y-77470000D03*
X167640000Y-125730000D03*
X144780000Y-77470000D03*
X165100000Y-125730000D03*
X147320000Y-77470000D03*
X162560000Y-125730000D03*
X149860000Y-77470000D03*
X160020000Y-125730000D03*
X152400000Y-77470000D03*
X157480000Y-125730000D03*
X154940000Y-77470000D03*
X153420000Y-125730000D03*
X157480000Y-77470000D03*
X150880000Y-125730000D03*
X162560000Y-77470000D03*
X148340000Y-125730000D03*
X165100000Y-77470000D03*
X145800000Y-125730000D03*
X167640000Y-77470000D03*
X143260000Y-125730000D03*
X170180000Y-77470000D03*
X140720000Y-125730000D03*
X172720000Y-77470000D03*
X138180000Y-125730000D03*
X175260000Y-77470000D03*
X135640000Y-125730000D03*
X175260000Y-125730000D03*
X172720000Y-125730000D03*
G04 #@! TD*
D12*
G04 #@! TO.C,C4*
X170180000Y-101600000D03*
X172680000Y-101600000D03*
G04 #@! TD*
D13*
G04 #@! TO.C,AOP1*
X154940000Y-93980000D03*
X147320000Y-101600000D03*
X154940000Y-96520000D03*
X147320000Y-99060000D03*
X154940000Y-99060000D03*
X147320000Y-96520000D03*
X154940000Y-101600000D03*
D14*
X147320000Y-93980000D03*
G04 #@! TD*
D12*
G04 #@! TO.C,C1*
X134620000Y-96520000D03*
X134620000Y-99020000D03*
G04 #@! TD*
G04 #@! TO.C,C2*
X142240000Y-115530000D03*
X142240000Y-113030000D03*
G04 #@! TD*
G04 #@! TO.C,C3*
X171450000Y-96520000D03*
X168950000Y-96520000D03*
G04 #@! TD*
D15*
G04 #@! TO.C,R1*
X157480000Y-110490000D03*
D16*
X152400000Y-110490000D03*
G04 #@! TD*
G04 #@! TO.C,R3*
X168910000Y-105410000D03*
D15*
X173990000Y-105410000D03*
G04 #@! TD*
G04 #@! TO.C,R5*
X139700000Y-99060000D03*
D16*
X139700000Y-93980000D03*
G04 #@! TD*
D15*
G04 #@! TO.C,R6*
X152400000Y-106680000D03*
D16*
X147320000Y-106680000D03*
G04 #@! TD*
D15*
G04 #@! TO.C,Rcal1*
X166370000Y-110490000D03*
D16*
X161290000Y-110490000D03*
G04 #@! TD*
D17*
G04 #@! TO.C,cGrove1*
X129540000Y-110490000D03*
D18*
X129540000Y-112490000D03*
X129540000Y-114490000D03*
X129540000Y-116490000D03*
G04 #@! TD*
D19*
G04 #@! TO.C,J1*
X166370000Y-119380000D03*
D20*
X164370000Y-119380000D03*
X162370000Y-119380000D03*
X160370000Y-119380000D03*
X158370000Y-119380000D03*
X156370000Y-119380000D03*
X154370000Y-119380000D03*
X152370000Y-119380000D03*
G04 #@! TD*
D19*
G04 #@! TO.C,J2*
X132080000Y-83820000D03*
D20*
X132080000Y-85820000D03*
G04 #@! TD*
M02*
