M48
;DRILL file {KiCad (5.0.0)} date 12/01/18 13:55:59
;FORMAT={-:-/ absolute / inch / decimal}
FMAT,2
INCH,TZ
T1C0.0276
T2C0.0300
T3C0.0315
%
G90
G05
M72
T1
X6.35Y-4.35
X6.55Y-4.35
X6.Y-4.35
X5.8Y-4.2
X6.Y-4.2
X5.5Y-3.7
X5.5Y-3.9
X6.65Y-4.15
X6.85Y-4.15
X6.2Y-4.35
T2
X5.1Y-4.35
X5.1Y-4.4287
X5.1Y-4.5075
X5.1Y-4.5862
T3
X5.1402Y-4.95
X5.2402Y-4.95
X5.3402Y-4.95
X5.4402Y-4.95
X5.5Y-3.05
X5.5402Y-4.95
X5.6Y-3.05
X5.6402Y-4.95
X5.7Y-3.05
X5.7402Y-4.95
X5.8Y-3.05
X5.8402Y-4.95
X5.9Y-3.05
X5.9402Y-4.95
X6.Y-3.05
X6.0402Y-4.95
X6.1Y-3.05
X6.2Y-3.05
X6.2Y-4.95
X6.3Y-4.95
X6.4Y-3.05
X6.4Y-4.95
X6.5Y-3.05
X6.5Y-4.95
X6.6Y-3.05
X6.6Y-4.95
X6.7Y-3.05
X6.7Y-4.95
X6.8Y-3.05
X6.8Y-4.95
X6.9Y-3.05
X6.9Y-4.95
X5.6Y-4.45
X5.6Y-4.5484
X5.3Y-3.8
X5.3Y-3.8984
X5.8Y-3.7
X5.8Y-3.8
X5.8Y-3.9
X5.8Y-4.
X6.1Y-3.7
X6.1Y-3.8
X6.1Y-3.9
X6.1Y-4.
X6.7Y-4.
X6.7984Y-4.
X5.9988Y-4.7
X6.0776Y-4.7
X6.1563Y-4.7
X6.235Y-4.7
X6.3138Y-4.7
X6.3925Y-4.7
X6.4713Y-4.7
X6.55Y-4.7
X6.6516Y-3.8
X6.75Y-3.8
X5.2Y-3.3
X5.2Y-3.3787
T0
M30
