G04 #@! TF.GenerationSoftware,KiCad,Pcbnew,(5.0.0)*
G04 #@! TF.CreationDate,2018-12-01T13:55:55+01:00*
G04 #@! TF.ProjectId,GazSensor-Rodier&Xu,47617A53656E736F722D526F64696572,1.0*
G04 #@! TF.SameCoordinates,Original*
G04 #@! TF.FileFunction,Legend,Top*
G04 #@! TF.FilePolarity,Positive*
%FSLAX46Y46*%
G04 Gerber Fmt 4.6, Leading zero omitted, Abs format (unit mm)*
G04 Created by KiCad (PCBNEW (5.0.0)) date 12/01/18 13:55:55*
%MOMM*%
%LPD*%
G01*
G04 APERTURE LIST*
%ADD10C,0.120000*%
%ADD11C,0.150000*%
G04 APERTURE END LIST*
D10*
G04 #@! TO.C,A1*
X180470000Y-112780000D02*
X180470000Y-80010000D01*
X180470000Y-80010000D02*
X177930000Y-77470000D01*
X177930000Y-77470000D02*
X177930000Y-74800000D01*
X177930000Y-74800000D02*
X111630000Y-74800000D01*
X111630000Y-74800000D02*
X111630000Y-77980000D01*
X111630000Y-77980000D02*
X109730000Y-77980000D01*
X109730000Y-77980000D02*
X109730000Y-87120000D01*
X109730000Y-87120000D02*
X111630000Y-87120000D01*
X111630000Y-87120000D02*
X111630000Y-107190000D01*
X111630000Y-107190000D02*
X105280000Y-107190000D01*
X105280000Y-107190000D02*
X105280000Y-118870000D01*
X105280000Y-118870000D02*
X111630000Y-118870000D01*
X111630000Y-118870000D02*
X111630000Y-128400000D01*
X111630000Y-128400000D02*
X176280000Y-128400000D01*
X176280000Y-128400000D02*
X177930000Y-126750000D01*
X177930000Y-126750000D02*
X177930000Y-115320000D01*
X177930000Y-115320000D02*
X180470000Y-112780000D01*
G04 #@! TO.C,C4*
X170801000Y-100680000D02*
X172059000Y-100680000D01*
X170801000Y-102520000D02*
X172059000Y-102520000D01*
G04 #@! TO.C,AOP1*
X153380000Y-92650000D02*
X152130000Y-92650000D01*
X153380000Y-102930000D02*
X153380000Y-92650000D01*
X148880000Y-102930000D02*
X153380000Y-102930000D01*
X148880000Y-92650000D02*
X148880000Y-102930000D01*
X150130000Y-92650000D02*
X148880000Y-92650000D01*
X152130000Y-92650000D02*
G75*
G02X150130000Y-92650000I-1000000J0D01*
G01*
G04 #@! TO.C,C1*
X135540000Y-97141000D02*
X135540000Y-98399000D01*
X133700000Y-97141000D02*
X133700000Y-98399000D01*
G04 #@! TO.C,C2*
X141320000Y-113651000D02*
X141320000Y-114909000D01*
X143160000Y-113651000D02*
X143160000Y-114909000D01*
G04 #@! TO.C,C3*
X170829000Y-97440000D02*
X169571000Y-97440000D01*
X170829000Y-95600000D02*
X169571000Y-95600000D01*
G04 #@! TO.C,R1*
X156860000Y-111410000D02*
X153020000Y-111410000D01*
X156860000Y-109570000D02*
X153020000Y-109570000D01*
G04 #@! TO.C,R3*
X173370000Y-104490000D02*
X169530000Y-104490000D01*
X173370000Y-106330000D02*
X169530000Y-106330000D01*
G04 #@! TO.C,R5*
X138780000Y-98440000D02*
X138780000Y-94600000D01*
X140620000Y-98440000D02*
X140620000Y-94600000D01*
G04 #@! TO.C,R6*
X151780000Y-107600000D02*
X147940000Y-107600000D01*
X151780000Y-105760000D02*
X147940000Y-105760000D01*
G04 #@! TO.C,Rcal1*
X165750000Y-111410000D02*
X161910000Y-111410000D01*
X165750000Y-109570000D02*
X161910000Y-109570000D01*
G04 #@! TO.C,cGrove1*
X132540000Y-107490000D02*
X132540000Y-110490000D01*
X129540000Y-107490000D02*
X132540000Y-107490000D01*
X126240000Y-115490000D02*
X126240000Y-116090000D01*
X126240000Y-110890000D02*
X126240000Y-111490000D01*
X132090000Y-107990000D02*
X132090000Y-119040000D01*
X126240000Y-107990000D02*
X132090000Y-107990000D01*
X126240000Y-111740000D02*
X126240000Y-115240000D01*
X126240000Y-119040000D02*
X132090000Y-119040000D01*
X126240000Y-107990000D02*
X126240000Y-110640000D01*
X126240000Y-116390000D02*
X126240000Y-119040000D01*
G04 #@! TO.C,J1*
X151310000Y-118320000D02*
X151310000Y-120440000D01*
X165370000Y-118320000D02*
X151310000Y-118320000D01*
X165370000Y-120440000D02*
X151310000Y-120440000D01*
X165370000Y-118320000D02*
X165370000Y-120440000D01*
X166370000Y-118320000D02*
X167430000Y-118320000D01*
X167430000Y-118320000D02*
X167430000Y-119380000D01*
G04 #@! TO.C,J2*
X131020000Y-86880000D02*
X133140000Y-86880000D01*
X131020000Y-84820000D02*
X131020000Y-86880000D01*
X133140000Y-84820000D02*
X133140000Y-86880000D01*
X131020000Y-84820000D02*
X133140000Y-84820000D01*
X131020000Y-83820000D02*
X131020000Y-82760000D01*
X131020000Y-82760000D02*
X132080000Y-82760000D01*
G04 #@! TO.C,A1*
D11*
X136445714Y-77636666D02*
X136921904Y-77636666D01*
X136350476Y-77922380D02*
X136683809Y-76922380D01*
X137017142Y-77922380D01*
X137874285Y-77922380D02*
X137302857Y-77922380D01*
X137588571Y-77922380D02*
X137588571Y-76922380D01*
X137493333Y-77065238D01*
X137398095Y-77160476D01*
X137302857Y-77208095D01*
G04 #@! TO.C,C4*
X166203333Y-101957142D02*
X166155714Y-102004761D01*
X166012857Y-102052380D01*
X165917619Y-102052380D01*
X165774761Y-102004761D01*
X165679523Y-101909523D01*
X165631904Y-101814285D01*
X165584285Y-101623809D01*
X165584285Y-101480952D01*
X165631904Y-101290476D01*
X165679523Y-101195238D01*
X165774761Y-101100000D01*
X165917619Y-101052380D01*
X166012857Y-101052380D01*
X166155714Y-101100000D01*
X166203333Y-101147619D01*
X167060476Y-101385714D02*
X167060476Y-102052380D01*
X166822380Y-101004761D02*
X166584285Y-101719047D01*
X167203333Y-101719047D01*
G04 #@! TO.C,AOP1*
X151931904Y-91606666D02*
X152408095Y-91606666D01*
X151836666Y-91892380D02*
X152170000Y-90892380D01*
X152503333Y-91892380D01*
X153027142Y-90892380D02*
X153217619Y-90892380D01*
X153312857Y-90940000D01*
X153408095Y-91035238D01*
X153455714Y-91225714D01*
X153455714Y-91559047D01*
X153408095Y-91749523D01*
X153312857Y-91844761D01*
X153217619Y-91892380D01*
X153027142Y-91892380D01*
X152931904Y-91844761D01*
X152836666Y-91749523D01*
X152789047Y-91559047D01*
X152789047Y-91225714D01*
X152836666Y-91035238D01*
X152931904Y-90940000D01*
X153027142Y-90892380D01*
X153884285Y-91892380D02*
X153884285Y-90892380D01*
X154265238Y-90892380D01*
X154360476Y-90940000D01*
X154408095Y-90987619D01*
X154455714Y-91082857D01*
X154455714Y-91225714D01*
X154408095Y-91320952D01*
X154360476Y-91368571D01*
X154265238Y-91416190D01*
X153884285Y-91416190D01*
X155408095Y-91892380D02*
X154836666Y-91892380D01*
X155122380Y-91892380D02*
X155122380Y-90892380D01*
X155027142Y-91035238D01*
X154931904Y-91130476D01*
X154836666Y-91178095D01*
G04 #@! TO.C,C1*
X134453333Y-93067142D02*
X134405714Y-93114761D01*
X134262857Y-93162380D01*
X134167619Y-93162380D01*
X134024761Y-93114761D01*
X133929523Y-93019523D01*
X133881904Y-92924285D01*
X133834285Y-92733809D01*
X133834285Y-92590952D01*
X133881904Y-92400476D01*
X133929523Y-92305238D01*
X134024761Y-92210000D01*
X134167619Y-92162380D01*
X134262857Y-92162380D01*
X134405714Y-92210000D01*
X134453333Y-92257619D01*
X135405714Y-93162380D02*
X134834285Y-93162380D01*
X135120000Y-93162380D02*
X135120000Y-92162380D01*
X135024761Y-92305238D01*
X134929523Y-92400476D01*
X134834285Y-92448095D01*
G04 #@! TO.C,C2*
X145883333Y-112117142D02*
X145835714Y-112164761D01*
X145692857Y-112212380D01*
X145597619Y-112212380D01*
X145454761Y-112164761D01*
X145359523Y-112069523D01*
X145311904Y-111974285D01*
X145264285Y-111783809D01*
X145264285Y-111640952D01*
X145311904Y-111450476D01*
X145359523Y-111355238D01*
X145454761Y-111260000D01*
X145597619Y-111212380D01*
X145692857Y-111212380D01*
X145835714Y-111260000D01*
X145883333Y-111307619D01*
X146264285Y-111307619D02*
X146311904Y-111260000D01*
X146407142Y-111212380D01*
X146645238Y-111212380D01*
X146740476Y-111260000D01*
X146788095Y-111307619D01*
X146835714Y-111402857D01*
X146835714Y-111498095D01*
X146788095Y-111640952D01*
X146216666Y-112212380D01*
X146835714Y-112212380D01*
G04 #@! TO.C,C3*
X168743333Y-93067142D02*
X168695714Y-93114761D01*
X168552857Y-93162380D01*
X168457619Y-93162380D01*
X168314761Y-93114761D01*
X168219523Y-93019523D01*
X168171904Y-92924285D01*
X168124285Y-92733809D01*
X168124285Y-92590952D01*
X168171904Y-92400476D01*
X168219523Y-92305238D01*
X168314761Y-92210000D01*
X168457619Y-92162380D01*
X168552857Y-92162380D01*
X168695714Y-92210000D01*
X168743333Y-92257619D01*
X169076666Y-92162380D02*
X169695714Y-92162380D01*
X169362380Y-92543333D01*
X169505238Y-92543333D01*
X169600476Y-92590952D01*
X169648095Y-92638571D01*
X169695714Y-92733809D01*
X169695714Y-92971904D01*
X169648095Y-93067142D01*
X169600476Y-93114761D01*
X169505238Y-93162380D01*
X169219523Y-93162380D01*
X169124285Y-93114761D01*
X169076666Y-93067142D01*
G04 #@! TO.C,R1*
X157313333Y-113482380D02*
X156980000Y-113006190D01*
X156741904Y-113482380D02*
X156741904Y-112482380D01*
X157122857Y-112482380D01*
X157218095Y-112530000D01*
X157265714Y-112577619D01*
X157313333Y-112672857D01*
X157313333Y-112815714D01*
X157265714Y-112910952D01*
X157218095Y-112958571D01*
X157122857Y-113006190D01*
X156741904Y-113006190D01*
X158265714Y-113482380D02*
X157694285Y-113482380D01*
X157980000Y-113482380D02*
X157980000Y-112482380D01*
X157884761Y-112625238D01*
X157789523Y-112720476D01*
X157694285Y-112768095D01*
G04 #@! TO.C,R3*
X171283333Y-107782380D02*
X170950000Y-107306190D01*
X170711904Y-107782380D02*
X170711904Y-106782380D01*
X171092857Y-106782380D01*
X171188095Y-106830000D01*
X171235714Y-106877619D01*
X171283333Y-106972857D01*
X171283333Y-107115714D01*
X171235714Y-107210952D01*
X171188095Y-107258571D01*
X171092857Y-107306190D01*
X170711904Y-107306190D01*
X171616666Y-106782380D02*
X172235714Y-106782380D01*
X171902380Y-107163333D01*
X172045238Y-107163333D01*
X172140476Y-107210952D01*
X172188095Y-107258571D01*
X172235714Y-107353809D01*
X172235714Y-107591904D01*
X172188095Y-107687142D01*
X172140476Y-107734761D01*
X172045238Y-107782380D01*
X171759523Y-107782380D01*
X171664285Y-107734761D01*
X171616666Y-107687142D01*
G04 #@! TO.C,R5*
X142073333Y-94432380D02*
X141740000Y-93956190D01*
X141501904Y-94432380D02*
X141501904Y-93432380D01*
X141882857Y-93432380D01*
X141978095Y-93480000D01*
X142025714Y-93527619D01*
X142073333Y-93622857D01*
X142073333Y-93765714D01*
X142025714Y-93860952D01*
X141978095Y-93908571D01*
X141882857Y-93956190D01*
X141501904Y-93956190D01*
X142978095Y-93432380D02*
X142501904Y-93432380D01*
X142454285Y-93908571D01*
X142501904Y-93860952D01*
X142597142Y-93813333D01*
X142835238Y-93813333D01*
X142930476Y-93860952D01*
X142978095Y-93908571D01*
X143025714Y-94003809D01*
X143025714Y-94241904D01*
X142978095Y-94337142D01*
X142930476Y-94384761D01*
X142835238Y-94432380D01*
X142597142Y-94432380D01*
X142501904Y-94384761D01*
X142454285Y-94337142D01*
G04 #@! TO.C,R6*
X156043333Y-105862380D02*
X155710000Y-105386190D01*
X155471904Y-105862380D02*
X155471904Y-104862380D01*
X155852857Y-104862380D01*
X155948095Y-104910000D01*
X155995714Y-104957619D01*
X156043333Y-105052857D01*
X156043333Y-105195714D01*
X155995714Y-105290952D01*
X155948095Y-105338571D01*
X155852857Y-105386190D01*
X155471904Y-105386190D01*
X156900476Y-104862380D02*
X156710000Y-104862380D01*
X156614761Y-104910000D01*
X156567142Y-104957619D01*
X156471904Y-105100476D01*
X156424285Y-105290952D01*
X156424285Y-105671904D01*
X156471904Y-105767142D01*
X156519523Y-105814761D01*
X156614761Y-105862380D01*
X156805238Y-105862380D01*
X156900476Y-105814761D01*
X156948095Y-105767142D01*
X156995714Y-105671904D01*
X156995714Y-105433809D01*
X156948095Y-105338571D01*
X156900476Y-105290952D01*
X156805238Y-105243333D01*
X156614761Y-105243333D01*
X156519523Y-105290952D01*
X156471904Y-105338571D01*
X156424285Y-105433809D01*
G04 #@! TO.C,Rcal1*
X154900476Y-116022380D02*
X154567142Y-115546190D01*
X154329047Y-116022380D02*
X154329047Y-115022380D01*
X154710000Y-115022380D01*
X154805238Y-115070000D01*
X154852857Y-115117619D01*
X154900476Y-115212857D01*
X154900476Y-115355714D01*
X154852857Y-115450952D01*
X154805238Y-115498571D01*
X154710000Y-115546190D01*
X154329047Y-115546190D01*
X155757619Y-115974761D02*
X155662380Y-116022380D01*
X155471904Y-116022380D01*
X155376666Y-115974761D01*
X155329047Y-115927142D01*
X155281428Y-115831904D01*
X155281428Y-115546190D01*
X155329047Y-115450952D01*
X155376666Y-115403333D01*
X155471904Y-115355714D01*
X155662380Y-115355714D01*
X155757619Y-115403333D01*
X156614761Y-116022380D02*
X156614761Y-115498571D01*
X156567142Y-115403333D01*
X156471904Y-115355714D01*
X156281428Y-115355714D01*
X156186190Y-115403333D01*
X156614761Y-115974761D02*
X156519523Y-116022380D01*
X156281428Y-116022380D01*
X156186190Y-115974761D01*
X156138571Y-115879523D01*
X156138571Y-115784285D01*
X156186190Y-115689047D01*
X156281428Y-115641428D01*
X156519523Y-115641428D01*
X156614761Y-115593809D01*
X157233809Y-116022380D02*
X157138571Y-115974761D01*
X157090952Y-115879523D01*
X157090952Y-115022380D01*
X158138571Y-116022380D02*
X157567142Y-116022380D01*
X157852857Y-116022380D02*
X157852857Y-115022380D01*
X157757619Y-115165238D01*
X157662380Y-115260476D01*
X157567142Y-115308095D01*
G04 #@! TO.C,cGrove1*
X127230476Y-106894761D02*
X127135238Y-106942380D01*
X126944761Y-106942380D01*
X126849523Y-106894761D01*
X126801904Y-106847142D01*
X126754285Y-106751904D01*
X126754285Y-106466190D01*
X126801904Y-106370952D01*
X126849523Y-106323333D01*
X126944761Y-106275714D01*
X127135238Y-106275714D01*
X127230476Y-106323333D01*
X128182857Y-105990000D02*
X128087619Y-105942380D01*
X127944761Y-105942380D01*
X127801904Y-105990000D01*
X127706666Y-106085238D01*
X127659047Y-106180476D01*
X127611428Y-106370952D01*
X127611428Y-106513809D01*
X127659047Y-106704285D01*
X127706666Y-106799523D01*
X127801904Y-106894761D01*
X127944761Y-106942380D01*
X128040000Y-106942380D01*
X128182857Y-106894761D01*
X128230476Y-106847142D01*
X128230476Y-106513809D01*
X128040000Y-106513809D01*
X128659047Y-106942380D02*
X128659047Y-106275714D01*
X128659047Y-106466190D02*
X128706666Y-106370952D01*
X128754285Y-106323333D01*
X128849523Y-106275714D01*
X128944761Y-106275714D01*
X129420952Y-106942380D02*
X129325714Y-106894761D01*
X129278095Y-106847142D01*
X129230476Y-106751904D01*
X129230476Y-106466190D01*
X129278095Y-106370952D01*
X129325714Y-106323333D01*
X129420952Y-106275714D01*
X129563809Y-106275714D01*
X129659047Y-106323333D01*
X129706666Y-106370952D01*
X129754285Y-106466190D01*
X129754285Y-106751904D01*
X129706666Y-106847142D01*
X129659047Y-106894761D01*
X129563809Y-106942380D01*
X129420952Y-106942380D01*
X130087619Y-106275714D02*
X130325714Y-106942380D01*
X130563809Y-106275714D01*
X131325714Y-106894761D02*
X131230476Y-106942380D01*
X131040000Y-106942380D01*
X130944761Y-106894761D01*
X130897142Y-106799523D01*
X130897142Y-106418571D01*
X130944761Y-106323333D01*
X131040000Y-106275714D01*
X131230476Y-106275714D01*
X131325714Y-106323333D01*
X131373333Y-106418571D01*
X131373333Y-106513809D01*
X130897142Y-106609047D01*
X132325714Y-106942380D02*
X131754285Y-106942380D01*
X132040000Y-106942380D02*
X132040000Y-105942380D01*
X131944761Y-106085238D01*
X131849523Y-106180476D01*
X131754285Y-106228095D01*
G04 #@! TO.C,J1*
X171116666Y-117562380D02*
X171116666Y-118276666D01*
X171069047Y-118419523D01*
X170973809Y-118514761D01*
X170830952Y-118562380D01*
X170735714Y-118562380D01*
X172116666Y-118562380D02*
X171545238Y-118562380D01*
X171830952Y-118562380D02*
X171830952Y-117562380D01*
X171735714Y-117705238D01*
X171640476Y-117800476D01*
X171545238Y-117848095D01*
G04 #@! TO.C,J2*
X127936666Y-81212380D02*
X127936666Y-81926666D01*
X127889047Y-82069523D01*
X127793809Y-82164761D01*
X127650952Y-82212380D01*
X127555714Y-82212380D01*
X128365238Y-81307619D02*
X128412857Y-81260000D01*
X128508095Y-81212380D01*
X128746190Y-81212380D01*
X128841428Y-81260000D01*
X128889047Y-81307619D01*
X128936666Y-81402857D01*
X128936666Y-81498095D01*
X128889047Y-81640952D01*
X128317619Y-82212380D01*
X128936666Y-82212380D01*
G04 #@! TD*
M02*
